<svg width="88" height="88" viewBox="0 0 88 88" fill="none" xmlns="http://www.w3.org/2000/svg">
<path d="M0 44C0 23.2582 0 12.8873 6.44365 6.44365C12.8873 0 23.2582 0 44 0C64.7418 0 75.1126 0 81.5564 6.44365C88 12.8873 88 23.2582 88 44C88 64.7418 88 75.1126 81.5564 81.5564C75.1126 88 64.7418 88 44 88C23.2582 88 12.8873 88 6.44365 81.5564C0 75.1126 0 64.7418 0 44Z" fill="#120161"/>
<path d="M51.1663 51.8333C52.1788 51.8333 53.0181 52.6621 52.817 53.6545C52.4615 55.4072 51.598 57.0317 50.3147 58.315C48.5958 60.0341 46.2641 60.9999 43.833 60.9999C41.4018 60.9999 39.0703 60.0341 37.3512 58.315C36.0679 57.0317 35.2044 55.4072 34.8491 53.6545C34.6478 52.6621 35.4871 51.8333 36.4996 51.8333H51.1663Z" fill="white"/>
<path d="M55.0206 36.7569C54.0426 37.0189 53.4436 38.0421 53.9395 38.9248C54.4615 39.854 55.1834 40.6648 56.0618 41.2942C57.4408 42.2824 59.1198 42.762 60.8129 42.6509C62.5058 42.54 64.1079 41.8455 65.3462 40.6857C66.5846 39.526 67.3823 37.9726 67.6037 36.2905C67.8252 34.6084 67.4567 32.9016 66.5607 31.4608C65.6648 30.0201 64.2969 28.9346 62.6904 28.3892C61.0838 27.8438 59.338 27.8724 57.7501 28.4701C56.7388 28.8507 55.8317 29.447 55.087 30.2093C54.3795 30.9337 54.6932 32.0771 55.5701 32.5833L56.5001 33.1203C57.9146 33.9371 57.6357 36.0562 56.0579 36.479L55.0206 36.7569Z" fill="white"/>
<path d="M32.6459 36.7569C33.6239 37.0189 34.2229 38.0421 33.727 38.9248C33.205 39.854 32.4831 40.6648 31.6049 41.2942C30.2259 42.2824 28.5467 42.762 26.8538 42.6509C25.1608 42.54 23.5586 41.8455 22.3203 40.6857C21.082 39.526 20.2842 37.9726 20.0628 36.2905C19.8413 34.6084 20.2099 32.9016 21.1059 31.4608C22.0018 30.0201 23.3696 28.9346 24.9761 28.3892C26.5827 27.8438 28.3287 27.8724 29.9166 28.4701C30.9277 28.8507 31.835 29.447 32.5797 30.2093C33.2872 30.9337 32.9733 32.0771 32.0964 32.5833L31.1664 33.1203C29.7519 33.9371 30.031 36.0562 31.6086 36.479L32.6459 36.7569Z" fill="white"/>
</svg>
