<?xml version="1.0" encoding="UTF-8" standalone="no"?>
<!-- Created with Inkscape (http://www.inkscape.org/) -->

<svg
   version="1.1"
   id="svg2"
   width="666.66669"
   height="520.45331"
   viewBox="0 0 666.66669 520.45331"
   sodipodi:docname="3828558.eps"
   xmlns:inkscape="http://www.inkscape.org/namespaces/inkscape"
   xmlns:sodipodi="http://sodipodi.sourceforge.net/DTD/sodipodi-0.dtd"
   xmlns="http://www.w3.org/2000/svg"
   xmlns:svg="http://www.w3.org/2000/svg">
  <defs
     id="defs6" />
  <sodipodi:namedview
     id="namedview4"
     pagecolor="#ffffff"
     bordercolor="#000000"
     borderopacity="0.25"
     inkscape:showpageshadow="2"
     inkscape:pageopacity="0.0"
     inkscape:pagecheckerboard="0"
     inkscape:deskcolor="#d1d1d1" />
  <g
     id="g8"
     inkscape:groupmode="layer"
     inkscape:label="ink_ext_XXXXXX"
     transform="matrix(1.3333333,0,0,-1.3333333,0,520.45333)">
    <g
       id="g10"
       transform="scale(0.1)">
      <path
         d="m 0,449.129 h 5000 v 2.5 H 0 Z"
         style="fill:#e7e8e5;fill-opacity:1;fill-rule:nonzero;stroke:none"
         id="path12" />
      <path
         d="m 439.152,3723.59 c -30.101,0 -54.582,-24.49 -54.582,-54.57 V 954.699 c 0,-30.097 24.481,-54.578 54.582,-54.578 H 2370.14 c 30.08,0 54.57,24.481 54.57,54.578 V 3669.02 c 0,30.08 -24.49,54.57 -54.57,54.57 H 439.152 M 2370.14,897.621 H 439.152 c -31.476,0 -57.082,25.598 -57.082,57.078 V 3669.02 c 0,31.46 25.606,57.07 57.082,57.07 H 2370.14 c 31.46,0 57.07,-25.61 57.07,-57.07 V 954.699 c 0,-31.48 -25.61,-57.078 -57.07,-57.078"
         style="fill:#e7e8e5;fill-opacity:1;fill-rule:nonzero;stroke:none"
         id="path14" />
      <path
         d="m 2602.12,3723.59 c -30.09,0 -54.57,-24.49 -54.57,-54.57 V 954.699 c 0,-30.097 24.48,-54.578 54.57,-54.578 h 1930.99 c 30.09,0 54.58,24.481 54.58,54.578 V 3669.02 c 0,30.08 -24.49,54.57 -54.58,54.57 H 2602.12 M 4533.11,897.621 H 2602.12 c -31.47,0 -57.07,25.598 -57.07,57.078 V 3669.02 c 0,31.46 25.6,57.07 57.07,57.07 h 1930.99 c 31.47,0 57.08,-25.61 57.08,-57.07 V 954.699 c 0,-31.48 -25.61,-57.078 -57.08,-57.078"
         style="fill:#e7e8e5;fill-opacity:1;fill-rule:nonzero;stroke:none"
         id="path16" />
      <path
         d="m 4183.33,353.898 h 315.68 v 2.5 h -315.68 v -2.5"
         style="fill:#e7e8e5;fill-opacity:1;fill-rule:nonzero;stroke:none"
         id="path18" />
      <path
         d="m 3019.26,381.039 h 334.07 v 2.5 h -334.07 z"
         style="fill:#e7e8e5;fill-opacity:1;fill-rule:nonzero;stroke:none"
         id="path20" />
      <path
         d="m 3965.86,261.039 h 624.33 v 2.5 h -624.33 v -2.5"
         style="fill:#e7e8e5;fill-opacity:1;fill-rule:nonzero;stroke:none"
         id="path22" />
      <path
         d="m 524.59,277.84 h 192.348 v 2.5 H 524.59 v -2.5"
         style="fill:#e7e8e5;fill-opacity:1;fill-rule:nonzero;stroke:none"
         id="path24" />
      <path
         d="m 805.969,277.84 h 302.921 v 2.5 H 805.969 v -2.5"
         style="fill:#e7e8e5;fill-opacity:1;fill-rule:nonzero;stroke:none"
         id="path26" />
      <path
         d="m 1895.78,320.059 h 545.56 v 2.5 h -545.56 v -2.5"
         style="fill:#e7e8e5;fill-opacity:1;fill-rule:nonzero;stroke:none"
         id="path28" />
      <path
         d="M 2722.65,3094.32 2152.79,2524.45 V 626.488 h 1999.9 V 3094.32 H 2722.65"
         style="fill:#ffffff;fill-opacity:1;fill-rule:nonzero;stroke:none"
         id="path30" />
      <path
         d="M 2158.16,631.871 H 4147.3 V 3088.94 H 2724.87 L 2158.16,2522.23 V 631.871 M 4152.69,621.102 H 2152.78 c -2.97,0 -5.38,2.418 -5.38,5.386 V 2524.45 c 0,1.43 0.57,2.8 1.57,3.81 l 569.87,569.87 c 1.01,1 2.38,1.57 3.81,1.57 h 1430.04 c 2.96,0 5.38,-2.41 5.38,-5.38 V 626.488 c 0,-2.968 -2.42,-5.386 -5.38,-5.386"
         style="fill:#dadbd8;fill-opacity:1;fill-rule:nonzero;stroke:none"
         id="path32" />
      <path
         d="m 2152.79,2524.45 597.91,-77.13 -28.05,647 z"
         style="fill:#e2e2e0;fill-opacity:1;fill-rule:nonzero;stroke:none"
         id="path34" />
      <path
         d="m 2152.79,2524.45 h 569.86 v 569.87 z"
         style="fill:#ffffff;fill-opacity:1;fill-rule:nonzero;stroke:none"
         id="path36" />
      <path
         d="m 2165.77,2529.84 h 551.5 v 551.49 z m 556.88,-10.77 h -569.87 c -2.17,0 -4.14,1.31 -4.97,3.32 -0.83,2.02 -0.37,4.33 1.16,5.87 l 569.87,569.87 c 1.54,1.53 3.86,2.01 5.87,1.16 2.01,-0.83 3.32,-2.79 3.32,-4.97 v -569.87 c 0,-2.96 -2.41,-5.38 -5.38,-5.38"
         style="fill:#dadbd8;fill-opacity:1;fill-rule:nonzero;stroke:none"
         id="path38" />
      <path
         d="m 3268.44,1703.73 340.15,340.15 c 31.82,31.81 31.82,83.89 0,115.7 -31.82,31.83 -83.89,31.83 -115.7,0 l -340.15,-340.15 -340.15,340.15 c -31.82,31.83 -83.89,31.83 -115.71,0 -31.82,-31.81 -31.82,-83.89 0,-115.7 l 340.15,-340.15 -340.15,-340.15 c -31.82,-31.82 -31.82,-83.88 0,-115.7 31.82,-31.82 83.89,-31.82 115.71,0 l 340.15,340.14 340.15,-340.14 c 31.81,-31.82 83.88,-31.82 115.7,0 31.82,31.82 31.82,83.88 0,115.7 l -340.15,340.15"
         style="fill:#ededeb;fill-opacity:1;fill-rule:nonzero;stroke:none"
         id="path40" />
      <path
         d="m 2230.29,1985.25 c -39.93,-39.93 -104.67,-39.93 -144.61,0 l -328.13,328.14 144.6,144.6 328.14,-328.14 c 39.93,-39.92 39.93,-104.66 0,-144.6"
         style="fill:#ededeb;fill-opacity:1;fill-rule:nonzero;stroke:none"
         id="path42" />
      <path
         d="m 1915.52,2340.11 -40.09,-40.09 c -28.86,-28.87 -75.65,-28.87 -104.51,0 l -13.37,13.37 144.6,144.6 13.37,-13.37 c 28.86,-28.86 28.86,-75.65 0,-104.51"
         style="fill:#dadbd8;fill-opacity:1;fill-rule:nonzero;stroke:none"
         id="path44" />
      <path
         d="m 1810.66,2404.88 c -254.74,-254.74 -667.81,-254.74 -922.551,0 -254.742,254.75 -254.742,667.81 0,922.55 254.741,254.75 667.811,254.75 922.551,0 254.74,-254.74 254.74,-667.8 0,-922.55 m -963.605,963.61 c -277.457,-277.45 -277.457,-727.21 0,-1004.66 277.405,-277.41 727.205,-277.46 1004.665,0 277.4,277.4 277.4,727.26 0,1004.66 -277.46,277.46 -727.26,277.41 -1004.665,0"
         style="fill:#dadbd8;fill-opacity:1;fill-rule:nonzero;stroke:none"
         id="path46" />
      <path
         d="m 1722.61,2469.16 c -6.09,0 -12.17,2.33 -16.81,6.96 -9.28,9.28 -9.29,24.33 0,33.62 196.52,196.53 196.52,516.31 0,712.84 -9.29,9.29 -9.28,24.33 0,33.61 9.28,9.28 24.34,9.28 33.61,0 215.06,-215.06 215.06,-565 0,-780.07 -4.63,-4.63 -10.72,-6.96 -16.8,-6.96"
         style="fill:#dadbd8;fill-opacity:1;fill-rule:nonzero;stroke:none"
         id="path48" />
      <path
         d="m 835.793,2720.28 c -10.773,0 -20.52,7.37 -23.105,18.3 -34.993,147.82 -7.29,304.95 76.003,431.1 7.227,10.98 21.973,13.98 32.93,6.74 10.957,-7.23 13.977,-21.97 6.738,-32.93 -76.093,-115.26 -101.394,-258.85 -69.421,-393.96 3.027,-12.77 -4.875,-25.58 -17.649,-28.6 -1.848,-0.44 -3.691,-0.65 -5.496,-0.65"
         style="fill:#dadbd8;fill-opacity:1;fill-rule:nonzero;stroke:none"
         id="path50" />
      <path
         d="m 976.16,2469.16 c -6.082,0 -12.168,2.33 -16.805,6.96 -43.015,43.03 -78.339,92.28 -104.968,146.37 -5.801,11.78 -0.957,26.03 10.816,31.82 11.738,5.85 26.02,0.95 31.817,-10.82 24.335,-49.42 56.625,-94.42 95.949,-133.75 9.291,-9.29 9.281,-24.34 0,-33.62 -4.641,-4.63 -10.723,-6.96 -16.809,-6.96"
         style="fill:#dadbd8;fill-opacity:1;fill-rule:nonzero;stroke:none"
         id="path52" />
      <path
         d="m 1903.04,760.969 -9.83,9.832 c -23.11,23.109 -23.11,60.57 0,83.66 l 217.09,217.099 93.5,-93.501 -217.09,-217.09 c -23.1,-23.11 -60.56,-23.11 -83.67,0"
         style="fill:#ededeb;fill-opacity:1;fill-rule:nonzero;stroke:none"
         id="path54" />
      <path
         d="m 2123.4,973.602 -17.56,17.546 c -20.97,20.982 -20.97,54.972 0,75.952 l 4.46,4.46 93.5,-93.501 -4.46,-4.457 c -20.97,-20.973 -54.97,-20.973 -75.94,0"
         style="fill:#dadbd8;fill-opacity:1;fill-rule:nonzero;stroke:none"
         id="path56" />
      <path
         d="m 2843.49,1578.66 -218.96,-218.97 c -53.44,-53.43 -53.44,-140.88 0,-194.32 53.43,-53.43 140.88,-53.43 194.31,0 l 88.57,88.58 c 18.3,110.54 -3.01,226.44 -63.92,324.71"
         style="fill:#ededeb;fill-opacity:1;fill-rule:nonzero;stroke:none"
         id="path58" />
      <path
         d="m 2046.93,1306.19 c -16.18,232.39 159.1,433.91 391.49,450.09 232.39,16.18 433.91,-159.1 450.09,-391.49 16.18,-232.39 -159.1,-433.911 -391.49,-450.091 -232.39,-16.179 -433.91,159.101 -450.09,391.491 z m 879.04,61.2 c -17.63,253.11 -237.05,443.97 -490.16,426.34 -253.06,-17.62 -443.96,-237.04 -426.33,-490.14 17.62,-253.07 237.09,-443.969 490.15,-426.34 253.1,17.609 443.96,237.09 426.34,490.14"
         style="fill:#dadbd8;fill-opacity:1;fill-rule:nonzero;stroke:none"
         id="path60" />
      <path
         d="m 2233.76,1066.51 c -68.91,59.94 -115.01,146.12 -121.85,244.2 -0.58,8.47 5.8,15.8 14.27,16.4 8.46,0.6 15.8,-5.79 16.4,-14.27 12.49,-179.27 168.52,-314.969 347.78,-302.49 8.46,0.59 15.81,-5.81 16.4,-14.26 0.59,-8.469 -5.8,-15.82 -14.26,-16.41 -98.09,-6.821 -189.82,26.89 -258.74,86.83"
         style="fill:#dadbd8;fill-opacity:1;fill-rule:nonzero;stroke:none"
         id="path62" />
      <path
         d="m 2786.4,1415.74 c -2.2,1.91 -3.88,4.46 -4.71,7.47 -23.93,86.04 -83.26,159.31 -162.73,201.05 -7.55,3.93 -10.41,13.24 -6.47,20.74 3.94,7.52 13.23,10.41 20.74,6.48 86.99,-45.7 151.88,-125.87 178.06,-220.03 2.28,-8.19 -2.5,-16.65 -10.68,-18.92 -5.16,-1.44 -10.46,-0.06 -14.21,3.21"
         style="fill:#dadbd8;fill-opacity:1;fill-rule:nonzero;stroke:none"
         id="path64" />
      <path
         d="m 2433.93,1664.37 c -2.98,2.57 -4.96,6.3 -5.25,10.52 -0.58,8.47 5.8,15.8 14.26,16.4 39.26,2.73 78.27,-0.94 115.96,-10.9 8.23,-2.21 13.1,-10.59 10.93,-18.79 -2.17,-8.21 -10.58,-13.1 -18.79,-10.92 -34.42,9.1 -70.07,12.45 -105.96,9.95 -4.23,-0.3 -8.19,1.15 -11.15,3.74"
         style="fill:#dadbd8;fill-opacity:1;fill-rule:nonzero;stroke:none"
         id="path66" />
      <path
         d="M 4438.89,113.23 C 4438.89,50.6914 3570.83,0 2500,0 1429.18,0 561.109,50.6914 561.109,113.23 c 0,62.54 868.071,113.239 1938.891,113.239 1070.83,0 1938.89,-50.699 1938.89,-113.239"
         style="fill:#f3f2f1;fill-opacity:1;fill-rule:nonzero;stroke:none"
         id="path68" />
      <path
         d="m 1378.22,2816.78 c -80.61,-81.03 56.43,-206.97 -34.11,-264.73 73.84,-37.14 332.88,-84.23 399.61,61.62 -48.89,38 -14.93,131.48 -60.07,221.12 -67.01,133.05 -386.04,74.16 -305.43,-18.01"
         style="fill:#17282f;fill-opacity:1;fill-rule:nonzero;stroke:none"
         id="path70" />
      <path
         d="m 1385.52,2818.92 c -25.13,4.23 -109.88,-38.03 -46.84,-151.33 50.92,-91.53 8.52,-98.09 8.52,-98.09 0,0 50.3,-1.4 20.29,66.69 -32.05,72.73 -47,148.17 18.03,182.73"
         style="fill:#17282f;fill-opacity:1;fill-rule:nonzero;stroke:none"
         id="path72" />
      <path
         d="m 1979.85,2099.47 c -6.24,11.95 -20.99,16.57 -32.94,10.33 l -5.94,-3.13 c -1.87,-0.97 -5.49,-3.38 -8.41,-5 -3.05,-1.85 -6.21,-3.61 -9.42,-5.23 -6.39,-3.29 -13.02,-5.96 -19.54,-8.26 -13.08,-4.6 -26.1,-7.04 -38.46,-7.24 -12.4,-0.3 -24.12,1.94 -35.5,5.7 -7.14,2.51 -14.1,5.85 -20.96,9.77 -8.57,19.01 -16.75,38.21 -23.8,57.98 -8.5,23.14 -15.96,46.76 -22.54,70.66 -6.56,23.89 -12.4,48.04 -17.22,72.34 -2.5,12.13 -4.72,24.3 -6.71,36.43 l -2.67,18.11 c -0.91,5.82 -1.71,12.35 -2.25,16.95 l -0.23,1.99 c -3.14,26.53 -26.73,46.06 -53.59,43.93 -27.52,-2.19 -48.05,-26.27 -45.87,-53.79 0.67,-8.45 1.33,-14.95 2.19,-22.12 0.8,-7.04 1.94,-13.9 2.95,-20.81 2.2,-13.75 4.67,-27.38 7.43,-40.94 5.64,-27.07 12.56,-53.84 21,-80.2 3.97,-13.23 8.77,-26.25 13.28,-39.33 5.16,-12.89 9.87,-25.9 15.61,-38.6 10.59,-25.67 23.66,-50.42 37.14,-74.86 l 1.22,-2.22 c 3.46,-6.3 8.71,-11.72 15.5,-15.41 18.34,-10.01 38.9,-17.52 60.52,-21.44 21.67,-3.89 44.37,-3.21 65.55,1.43 21.18,4.93 40.67,13.66 57.53,25 8.45,5.65 16.17,12.11 23.43,18.87 3.62,3.4 7.11,6.92 10.47,10.61 3.48,3.92 6.13,7.24 10.07,12.45 5.5,7.29 6.68,17.4 2.16,26.03"
         style="fill:#f46b74;fill-opacity:1;fill-rule:nonzero;stroke:none"
         id="path74" />
      <path
         d="m 2046.47,2193.09 -2.88,0.07 c -19.46,0.45 -38.03,-8.22 -50.16,-23.44 l -48.29,-60.6 -0.41,-41.41 c 38.76,-15.4 88,26.14 88,26.14 l 24.89,6.23 c 17.35,4.34 28.59,21.09 26.03,38.79 l -3.52,24.36 c -2.44,16.83 -16.66,29.45 -33.66,29.86"
         style="fill:#f46b74;fill-opacity:1;fill-rule:nonzero;stroke:none"
         id="path76" />
      <path
         d="m 1732.27,2426.83 c 32.3,-33.19 34.36,-132.33 34.36,-132.33 l -129.28,-103.94 c 0,0 -53.01,146.91 -23.68,198.83 24.89,44.07 77.45,79.7 118.6,37.44"
         style="fill:#406fbf;fill-opacity:1;fill-rule:nonzero;stroke:none"
         id="path78" />
      <path
         d="m 1726.46,2262.2 c 11.72,52.83 17.8,89.3 20.67,114.46 0.29,2.56 0.43,5.11 0.43,7.64 -0.02,17.27 -6.8,33.51 -18.35,45.51 1.03,-0.95 2.05,-1.94 3.06,-2.98 32.3,-33.19 34.36,-132.33 34.36,-132.33 l -40.17,-32.3"
         style="fill:#5d87cd;fill-opacity:1;fill-rule:nonzero;stroke:none"
         id="path80" />
      <path
         d="m 1518.52,198.969 71.36,-7.879 9.79,194.031 -71.37,7.879 -9.78,-194.031"
         style="fill:#f46b74;fill-opacity:1;fill-rule:nonzero;stroke:none"
         id="path82" />
      <path
         d="m 1601.62,237.762 h -83.92 c -3.65,0 -6.42,-2.532 -6.67,-6.102 l -5.59,-79.351 c -0.58,-8.239 7.03,-15.797 15.48,-15.879 35.41,-0.328 35.75,-0.168 79.86,-0.168 27.14,0 81.61,0 119.09,0 36.65,0 36.74,37.058 20.89,40.41 -71.07,15.047 -98.78,35.797 -123.81,55.598 -4.51,3.57 -9.99,5.492 -15.33,5.492"
         style="fill:#17282f;fill-opacity:1;fill-rule:nonzero;stroke:none"
         id="path84" />
      <path
         d="m 1522.82,284.961 1.08,21.301 h 0.03 l -1.08,-21.301 h -0.03"
         style="fill:#c3c5c2;fill-opacity:1;fill-rule:nonzero;stroke:none"
         id="path86" />
      <path
         d="m 1522.85,284.961 1.08,21.301 71.66,-1.84 -0.97,-19.371 -71.77,-0.09"
         style="fill:#ea5b5b;fill-opacity:1;fill-rule:nonzero;stroke:none"
         id="path88" />
      <path
         d="m 1638.2,1932.94 c 0,0 61.7,-517.32 61.7,-747.32 -48.68,-319.999 -89.86,-881.581 -89.86,-881.581 l -98.85,2.539 c 0,0 -44.9,611.672 -3.25,875.712 -53.34,236.66 -119.15,782.63 -119.15,782.63 l 249.41,-31.98"
         style="fill:#17282f;fill-opacity:1;fill-rule:nonzero;stroke:none"
         id="path90" />
      <path
         d="m 1450.78,1507.32 c -2.44,16.18 -4.85,32.38 -7.22,48.52 l 0.01,0.02 c 2.36,-16.14 4.77,-32.36 7.21,-48.54"
         style="fill:#c3c5c2;fill-opacity:1;fill-rule:nonzero;stroke:none"
         id="path92" />
      <path
         d="m 1464.04,1421.92 c -4.49,28.07 -8.93,56.7 -13.26,85.4 -2.44,16.18 -4.85,32.4 -7.21,48.54 11.29,36.76 22.31,72.97 32.79,107.67 8.59,-82.88 7.07,-183.2 -12.32,-241.61"
         style="fill:#111d23;fill-opacity:1;fill-rule:nonzero;stroke:none"
         id="path94" />
      <path
         d="M 745.336,379.051 804.188,337.941 905.77,503.551 846.914,544.66 745.336,379.051"
         style="fill:#f46b74;fill-opacity:1;fill-rule:nonzero;stroke:none"
         id="path96" />
      <path
         d="m 819.109,359.621 -50.164,67.277 c -2.183,2.934 -5.875,3.641 -8.879,1.704 l -66.957,-42.954 c -6.949,-4.457 -8.468,-15.078 -3.476,-21.898 20.91,-28.578 21.242,-28.77 47.609,-64.129 16.223,-21.75 48.781,-65.422 71.188,-95.461 21.906,-29.379 51.664,-7.301 44.883,7.41 -30.426,65.969 -30.352,100.59 -29.442,132.481 0.164,5.758 -1.57,11.289 -4.762,15.57"
         style="fill:#17282f;fill-opacity:1;fill-rule:nonzero;stroke:none"
         id="path98" />
      <path
         d="m 853.383,418.141 v 0 l 3.504,5.711 -3.504,-5.711 m -63.028,34.308 -0.027,0.012 11.149,18.18 0.027,-0.012 -11.149,-18.18"
         style="fill:#c3c5c2;fill-opacity:1;fill-rule:nonzero;stroke:none"
         id="path100" />
      <path
         d="m 853.383,418.141 -63.028,34.308 11.149,18.18 62.012,-35.969 -6.629,-10.808 -3.508,-5.711"
         style="fill:#ea5b5b;fill-opacity:1;fill-rule:nonzero;stroke:none"
         id="path102" />
      <path
         d="m 1106.63,309.578 c -51.12,0 -157.521,0 -159.306,75.223 -1.418,59.019 71.606,83.469 134.556,86.48 29.41,1.52 54.26,-21.261 55.68,-50.601 0.06,-1.34 0.08,-2.668 0.04,-3.989 71.37,3.387 117.6,18.989 134.48,45.61 38.12,60.07 -34.84,214.918 -105.4,364.648 -82.95,176.061 -176.961,375.591 -178.809,566.651 -0.281,29.39 23.309,53.44 52.699,53.73 h 0.51 c 29.14,0 52.91,-23.49 53.2,-52.69 1.61,-167.79 90.36,-356.15 168.66,-522.331 90.38,-191.84 168.45,-357.508 98.99,-467.008 -40.85,-64.41 -124.36,-95.723 -255.3,-95.723"
         style="fill:#406fbf;fill-opacity:1;fill-rule:nonzero;stroke:none"
         id="path104" />
      <path
         d="m 1559.09,1943.09 c 0,0 -170.58,-591.17 -253.93,-805.55 C 1143.82,856.941 876.02,427.41 876.02,427.41 l -85.547,49.61 c 0,0 200.062,495.992 334.557,726.99 36.06,239.9 172.58,772.61 172.58,772.61 l 261.48,-33.53"
         style="fill:#17282f;fill-opacity:1;fill-rule:nonzero;stroke:none"
         id="path106" />
      <path
         d="m 855.758,311.719 c 1.027,-1.379 1.656,-2.66 1.777,-3.797 l -0.84,-2.063 c -2.015,-2.019 -4.183,-2.757 -6.629,-2.269 -6.535,1.32 -15.222,11.988 -23.703,28.91 11.016,-5.801 24.582,-14.32 29.395,-20.781 z m -21.305,-0.367 c 4.633,-6.211 9.766,-11.09 14.887,-12.133 3.504,-0.707 6.726,0.383 9.59,3.261 2.129,2.129 2.371,4.532 2.199,6.168 -1.262,11.993 -32.211,27.551 -38.402,30.551 l -2.063,-0.629 -0.25,-2.57 c 3.254,-7.07 8.262,-16.898 14.039,-24.648"
         style="fill:#406fbf;fill-opacity:1;fill-rule:nonzero;stroke:none"
         id="path108" />
      <path
         d="m 858.617,341.469 0.75,-1.149 c 1.086,-1.871 1.34,-3.261 0.754,-4.109 -3.285,-4.77 -22.539,-3.141 -33.742,1.277 7.519,4.551 25.059,13.614 32.238,3.981 z m -37.972,-5.86 0.554,-0.488 c 9.918,-5.551 35.996,-9.91 41.66,-1.68 1.239,1.809 2.161,4.918 -0.504,9.528 -10.324,17.793 -39.957,-3.039 -41.214,-3.93 l -0.95,-2.027 0.454,-1.403"
         style="fill:#406fbf;fill-opacity:1;fill-rule:nonzero;stroke:none"
         id="path110" />
      <path
         d="m 1661.93,238.512 c 1.72,0 3.12,-0.274 4.11,-0.852 0.47,-0.289 0.98,-0.73 1.15,-1.91 0.42,-2.828 -0.28,-5.012 -2.14,-6.672 -4.97,-4.449 -18.71,-5.039 -37.35,-1.719 11.24,5.371 26.18,11.153 34.23,11.153 z m -12.44,-17.313 c 7.76,0 14.73,1.199 18.63,4.692 2.66,2.371 3.71,5.621 3.12,9.629 -0.44,2.992 -2.22,4.621 -3.64,5.46 -10.36,6.149 -41.34,-9.359 -47.44,-12.531 l -0.73,-2.027 1.92,-1.742 c 7.61,-1.61 18.48,-3.481 28.14,-3.481"
         style="fill:#406fbf;fill-opacity:1;fill-rule:nonzero;stroke:none"
         id="path112" />
      <path
         d="m 1639.79,258.582 1.37,-0.082 c 2.16,-0.262 3.41,-0.879 3.74,-1.859 1.87,-5.493 -10.95,-19.95 -21.19,-26.289 0.85,8.75 4.08,28.23 16.08,28.23 z m -18,-33.953 0.73,0.16 c 10.38,4.633 29.46,22.93 26.24,32.391 -0.7,2.07 -2.65,4.679 -7.93,5.289 -20.44,2.371 -21.46,-33.848 -21.49,-35.391 l 1.06,-1.969 1.39,-0.48"
         style="fill:#406fbf;fill-opacity:1;fill-rule:nonzero;stroke:none"
         id="path114" />
      <path
         d="m 1297.61,1976.62 c 65.75,-8.42 205.46,-26.29 340.57,-43.63 76.87,258.62 102.08,383.49 108.95,443.67 3.56,31.21 -15.27,60.63 -45.24,70.07 -20.36,6.42 -45.75,13.99 -71.36,20.53 -8.77,2.25 -17.61,4.38 -26.32,6.31 -49.86,11.07 -97.02,15.3 -154.64,19.9 -7.68,0.64 -15.32,1.06 -22.96,1.49 -15.09,0.72 -29.84,1 -43.6,1 -43.2,0.01 -77.03,-36.94 -73.26,-79.97 2.64,-30.23 4.76,-57.89 6.37,-83.47 3.81,-59.82 4.97,-108.04 4.1,-150.08 -1.77,-78.21 -10.56,-135.11 -22.61,-205.82"
         style="fill:#406fbf;fill-opacity:1;fill-rule:nonzero;stroke:none"
         id="path116" />
      <path
         d="m 1638.18,1932.99 c -95.17,12.22 -192.62,24.69 -264.9,33.94 -0.25,0.3 -0.51,0.6 -0.77,0.89 -15.14,17.17 -29.53,34.77 -42.77,52.79 -7.24,9.71 -14.06,19.63 -20.42,29.63 5.82,41.47 9.77,82.54 10.9,132.2 0.18,8.71 0.27,17.68 0.27,26.96 0,-9.28 -0.09,-18.25 -0.27,-26.96 13.92,17.99 25.08,36.77 33.44,55.23 l 1.7,-3.17 c 0,0 94.15,108.48 94.24,169.41 0,2.61 -0.17,5.13 -0.52,7.55 -6.06,41.25 -31.69,83.93 -70.51,83.93 -8.3,0 -17.2,-1.95 -26.65,-6.29 -0.43,-0.2 -0.86,-0.4 -1.29,-0.61 9.73,4.78 20.71,7.47 32.36,7.47 0.01,0 0.02,0 0.02,0 9.7,0 19.9,-0.14 30.35,-0.47 l 10.48,-17.47 c 1.4,-2.4 35.4,-58.01 120.4,-117.8 l 18.1,-12.6 17.4,13.3 c 48.5,37.1 54.8,83.6 54.8,105.3 -1.3,0.29 -2.7,0.7 -4,1 -5.05,1.32 -10.11,2.57 -15.14,3.78 5.04,-1.2 10.1,-2.45 15.13,-3.74 25.61,-6.54 51,-14.11 71.36,-20.53 27.51,-8.67 45.64,-34.17 45.67,-62.43 0,-2.53 -0.14,-5.08 -0.43,-7.64 -2.87,-25.16 -8.95,-61.63 -20.67,-114.46 -8.15,-36.74 -19.04,-81.41 -33.47,-135.68 -14.44,-54.32 -32.44,-118.25 -54.81,-193.53 M 1439.6,2494.2 c -4.33,0.26 -8.65,0.49 -12.96,0.71 -3.49,0.16 -6.92,0.32 -10.34,0.48 3.41,-0.12 6.85,-0.26 10.31,-0.43 4.33,-0.24 8.65,-0.48 12.99,-0.76"
         style="fill:#6d97d6;fill-opacity:1;fill-rule:nonzero;stroke:none"
         id="path118" />
      <path
         d="m 1320.22,2182.44 c 0.18,8.71 0.27,17.68 0.27,26.96 v 0 c 0,9.06 -0.08,18.43 -0.26,28.13 1.28,2.76 2.58,5.51 3.89,8.26 3.92,8.2 7.94,16.36 12.06,24.47 l 17.48,-32.59 c -8.36,-18.46 -19.52,-37.24 -33.44,-55.23"
         style="fill:#5e89cf;fill-opacity:1;fill-rule:nonzero;stroke:none"
         id="path120" />
      <path
         d="m 1630.54,2467.22 c -8.8,2.3 -17.6,4.39 -26.3,6.39 -49.9,11.01 -97.1,15.31 -154.7,19.91 -7.7,0.59 -15.3,1 -22.9,1.39 -4.5,0.21 -8.9,0.41 -13.3,0.61 l 10.5,-17.5 c 1.4,-2.4 35.4,-58.01 120.4,-117.8 l 18.1,-12.6 17.4,13.3 c 48.5,37.1 54.8,83.6 54.8,105.3 -1.3,0.29 -2.7,0.7 -4,1"
         style="fill:#ffffff;fill-opacity:1;fill-rule:nonzero;stroke:none"
         id="path122" />
      <path
         d="m 1487.06,2596.41 c -3.18,-42.09 -13.1,-84.98 -37.54,-102.96 0,0 31.18,-51.9 112.01,-108.66 50.6,38.71 42.65,88.82 42.65,88.82 -53.79,20.37 -50.14,57.3 -27.29,116.78 L 1534.9,2613 c -16.3,17.98 -46.02,7.61 -47.84,-16.59"
         style="fill:#f46b74;fill-opacity:1;fill-rule:nonzero;stroke:none"
         id="path124" />
      <path
         d="M 1576.84,2590.42 1534.9,2613 c -0.01,0.01 -0.01,0.01 -0.02,0.02 l 41.96,-22.59 c 0,0 0,0 0,-0.01 m -44.22,24.84 c -5.28,4.68 -11.63,6.82 -17.88,6.82 -6.46,0 -12.83,-2.28 -17.84,-6.41 5.01,4.14 11.38,6.43 17.85,6.43 6.26,0 12.6,-2.15 17.87,-6.84 m -35.8,0.34 c 0.03,0.02 0.05,0.05 0.08,0.07 -0.03,-0.02 -0.05,-0.05 -0.08,-0.07"
         style="fill:#111d23;fill-opacity:1;fill-rule:nonzero;stroke:none"
         id="path126" />
      <path
         d="m 1561.07,2525.09 c -34.17,17.11 -56.25,43.59 -73.45,75.15 1.34,6.39 4.71,11.62 9.2,15.36 0.03,0.02 0.05,0.05 0.08,0.07 v 0 c 5.01,4.13 11.38,6.41 17.84,6.41 6.25,0 12.6,-2.14 17.88,-6.82 0.77,-0.69 1.52,-1.43 2.24,-2.23 l 0.02,-0.01 c 0.01,-0.01 0.01,-0.01 0.02,-0.02 l 41.94,-22.58 c -9.94,-25.86 -16.23,-47.52 -15.77,-65.33"
         style="fill:#ea5b5b;fill-opacity:1;fill-rule:nonzero;stroke:none"
         id="path128" />
      <path
         d="m 1421.72,2728.4 c 20.88,-81.27 27.97,-116.11 77.64,-150.34 74.69,-51.48 169.96,-8.07 173.79,77.8 3.45,77.3 -31.26,197.22 -118.07,214.46 -85.51,17 -154.23,-60.64 -133.36,-141.92"
         style="fill:#f46b74;fill-opacity:1;fill-rule:nonzero;stroke:none"
         id="path130" />
      <path
         d="m 1628.58,2853.95 c -83.34,-73.33 -169.65,-93.75 -169.65,-93.75 0,0 62.03,-132.08 -54.16,-98.75 -33.69,112.5 0.47,170.84 29.64,198.34 92.5,30 157.5,40 194.17,-5.84"
         style="fill:#17282f;fill-opacity:1;fill-rule:nonzero;stroke:none"
         id="path132" />
      <path
         d="m 1417.79,2648.31 c 7.16,-15.85 20.97,-26.92 34.42,-31.76 20.24,-7.27 31.91,10.44 27.59,30.36 -3.88,17.93 -19.1,43.31 -40.03,42.01 -20.63,-1.29 -30.16,-22.47 -21.98,-40.61"
         style="fill:#f46b74;fill-opacity:1;fill-rule:nonzero;stroke:none"
         id="path134" />
      <path
         d="m 1295.07,1997.26 -19.27,-28.52 c -1.49,-2.22 1,-4.98 4.94,-5.49 l 357.19,-45.8 c 3.07,-0.4 5.81,0.78 6.25,2.69 l 6.98,30.1 c 0.48,2.08 -1.95,4.2 -5.31,4.63 l -344.9,44.23 c -2.54,0.33 -4.92,-0.42 -5.88,-1.84"
         style="fill:#406fbf;fill-opacity:1;fill-rule:nonzero;stroke:none"
         id="path136" />
      <path
         d="m 1336.45,1952.76 -9.24,1.18 c -1.84,0.23 -3.12,1.36 -2.84,2.51 l 9.41,39.05 c 0.27,1.14 2,1.88 3.84,1.65 l 9.24,-1.19 c 1.84,-0.24 3.12,-1.36 2.84,-2.5 l -9.41,-39.05 c -0.27,-1.15 -2,-1.89 -3.84,-1.65"
         style="fill:#17282f;fill-opacity:1;fill-rule:nonzero;stroke:none"
         id="path138" />
      <path
         d="m 1611.55,1917.47 -9.24,1.19 c -1.84,0.24 -3.12,1.36 -2.85,2.5 l 9.41,39.07 c 0.28,1.14 2.01,1.88 3.85,1.64 l 9.24,-1.19 c 1.84,-0.23 3.12,-1.35 2.84,-2.5 l -9.41,-39.06 c -0.28,-1.14 -2.01,-1.88 -3.84,-1.65"
         style="fill:#17282f;fill-opacity:1;fill-rule:nonzero;stroke:none"
         id="path140" />
      <path
         d="m 1474,1935.12 -9.24,1.18 c -1.84,0.23 -3.12,1.37 -2.85,2.51 l 9.42,39.05 c 0.27,1.15 2,1.89 3.84,1.65 l 9.24,-1.19 c 1.84,-0.23 3.12,-1.36 2.84,-2.5 l -9.41,-39.06 c -0.27,-1.14 -2.01,-1.89 -3.84,-1.64"
         style="fill:#17282f;fill-opacity:1;fill-rule:nonzero;stroke:none"
         id="path142" />
      <path
         d="m 1560.95,2731.89 c 1.29,-6.7 5.88,-11.45 10.26,-10.6 4.38,0.84 6.88,6.95 5.59,13.64 -1.28,6.7 -5.88,11.45 -10.25,10.61 -4.38,-0.84 -6.89,-6.95 -5.6,-13.65"
         style="fill:#17282f;fill-opacity:1;fill-rule:nonzero;stroke:none"
         id="path144" />
      <path
         d="m 1636.65,2746.45 c 1.28,-6.7 5.88,-11.45 10.26,-10.6 4.37,0.84 6.88,6.95 5.59,13.64 -1.29,6.7 -5.88,11.45 -10.26,10.61 -4.38,-0.84 -6.88,-6.95 -5.59,-13.65"
         style="fill:#17282f;fill-opacity:1;fill-rule:nonzero;stroke:none"
         id="path146" />
      <path
         d="m 1640.38,2759.36 15.19,7.72 c 0,0 -5.83,-14.15 -15.19,-7.72"
         style="fill:#17282f;fill-opacity:1;fill-rule:nonzero;stroke:none"
         id="path148" />
      <path
         d="m 1616.64,2731.42 c 0,0 16.91,-26.64 32.1,-38.15 -7.26,-9.96 -23.01,-9.07 -23.01,-9.07 l -9.09,47.22"
         style="fill:#f14358;fill-opacity:1;fill-rule:nonzero;stroke:none"
         id="path150" />
      <path
         d="m 1569.38,2657.2 -0.3,-2.2 c 0.48,-0.99 1.68,-1.41 2.67,-0.93 26.87,13 48.64,0.31 48.85,0.17 0.95,-0.57 2.2,-0.23 2.75,0.69 0.57,0.95 0.26,2.17 -0.68,2.75 -0.96,0.57 -23.78,13.97 -52.66,0 l -0.63,-0.48"
         style="fill:#17282f;fill-opacity:1;fill-rule:nonzero;stroke:none"
         id="path152" />
      <path
         d="m 1534.92,2752.52 1.36,1.55 c 7.89,16.02 22.52,17.96 22.67,17.98 2.18,0.26 3.76,2.26 3.5,4.46 -0.27,2.19 -2.26,3.75 -4.46,3.49 -0.78,-0.09 -19.1,-2.51 -28.9,-22.39 -0.97,-1.98 -0.16,-4.39 1.83,-5.36 1.33,-0.66 2.85,-0.5 4,0.27"
         style="fill:#17282f;fill-opacity:1;fill-rule:nonzero;stroke:none"
         id="path154" />
      <path
         d="m 1659.12,2803.18 0.48,0.57 c 1.25,1.83 0.79,4.32 -1.03,5.57 -18.26,12.56 -35.44,5.71 -36.16,5.41 -2.05,-0.84 -3.02,-3.19 -2.18,-5.23 0.85,-2.04 3.18,-3.01 5.22,-2.18 0.64,0.26 14.05,5.39 28.58,-4.59 1.61,-1.12 3.75,-0.88 5.09,0.45"
         style="fill:#17282f;fill-opacity:1;fill-rule:nonzero;stroke:none"
         id="path156" />
      <path
         d="m 1564.68,2744.8 15.2,7.72 c 0,0 -5.84,-14.15 -15.2,-7.72"
         style="fill:#17282f;fill-opacity:1;fill-rule:nonzero;stroke:none"
         id="path158" />
      <path
         d="m 1041.06,1340.92 c -29.14,0 -52.908,23.49 -53.189,52.68 -1.367,142.06 45.949,261.96 136.829,346.73 111.88,104.38 286.44,152.85 491.63,136.65 143.89,-11.41 236.18,23.68 343.01,64.31 17.55,6.67 35.31,13.42 53.5,20.05 27.57,10.09 58.14,-4.18 68.2,-31.79 10.04,-27.61 -4.18,-58.13 -31.79,-68.19 -17.71,-6.45 -34.99,-13.03 -52.09,-19.52 -108.86,-41.41 -221.41,-84.15 -389.23,-70.93 -175.07,13.91 -320.87,-24.62 -410.65,-108.38 -69.44,-64.77 -104.1,-154.91 -103,-267.89 0.28,-29.38 -23.31,-53.44 -52.69,-53.72 h -0.53"
         style="fill:#406fbf;fill-opacity:1;fill-rule:nonzero;stroke:none"
         id="path160" />
      <path
         d="m 2057.38,1707.88 214.14,78.44 -137.66,375.81 -214.14,-78.44 c -37.01,-13.56 -56.2,-54.93 -42.65,-91.94 l 88.36,-241.23 c 13.56,-37.01 54.93,-56.2 91.95,-42.64"
         style="fill:#406fbf;fill-opacity:1;fill-rule:nonzero;stroke:none"
         id="path162" />
      <path
         d="m 2032.89,1703.53 c -29.24,0 -56.85,18.04 -67.46,46.99 l -25.61,69.92 -36.59,99.89 -26.16,71.42 c -1.71,4.68 -2.9,9.43 -3.6,14.19 -0.51,3.47 -0.75,6.94 -0.75,10.39 0.05,29.2 18.08,56.77 47,67.36 l 118.63,43.46 c -0.92,-8.61 0.15,-17.37 3.3,-25.97 l 120.1,-327.9 c 3.15,-8.58 8,-15.97 14.26,-21.94 l -17.85,-6.54 -10.76,-3.94 -90.02,-32.98 c -8.07,-2.95 -16.34,-4.35 -24.49,-4.35"
         style="fill:#b8d2ef;fill-opacity:1;fill-rule:nonzero;stroke:none"
         id="path164" />
      <path
         d="m 2176.03,1751.32 c -0.01,0.01 -0.01,0.01 -0.02,0.02 l 95.51,34.98 -66.15,180.6 c 0.01,0 0.01,0 0.01,0.01 l 66.17,-180.63 -95.52,-34.98"
         style="fill:#cfe0f5;fill-opacity:1;fill-rule:nonzero;stroke:none"
         id="path166" />
      <path
         d="m 2205.37,1966.92 -71.51,195.21 -50.88,-18.64 v 0.03 l 50.89,18.64 71.51,-195.23 c 0,-0.01 0,-0.01 -0.01,-0.01"
         style="fill:#c1d4f0;fill-opacity:1;fill-rule:nonzero;stroke:none"
         id="path168" />
      <path
         d="m 2038.35,2127.15 c 0,0.01 0.01,0.02 0.01,0.03 l 44.62,16.34 v -0.03 l -44.63,-16.34"
         style="fill:#f46d90;fill-opacity:1;fill-rule:nonzero;stroke:none"
         id="path170" />
      <path
         d="m 2176.01,1751.34 c -6.26,5.97 -11.11,13.36 -14.26,21.94 l -120.1,327.9 c -3.15,8.6 -4.22,17.36 -3.3,25.97 l 95.51,34.98 137.66,-375.81 -95.51,-34.98"
         style="fill:#9abee8;fill-opacity:1;fill-rule:nonzero;stroke:none"
         id="path172" />
      <path
         d="m 2361.8,2002.33 -22.89,62.5 9.39,3.43 22.89,-62.5 -9.39,-3.43"
         style="fill:#406fbf;fill-opacity:1;fill-rule:nonzero;stroke:none"
         id="path174" />
      <path
         d="m 2324.54,2104.03 -33.78,92.22 c -11.67,31.89 -42.39,53.3 -76.43,53.3 -9.5,0 -18.85,-1.66 -27.81,-4.94 l -60.84,-22.29 -3.43,9.39 60.84,22.3 c 10.06,3.68 20.57,5.54 31.24,5.54 38.22,0 72.71,-24.05 85.83,-59.86 l 33.78,-92.22 -9.4,-3.44"
         style="fill:#406fbf;fill-opacity:1;fill-rule:nonzero;stroke:none"
         id="path176" />
      <path
         d="m 2267.32,1748.21 89.08,32.63 c 29.04,10.65 44.11,43.12 33.47,72.17 l -122.58,334.65 c -10.64,29.05 -43.12,44.11 -72.17,33.47 l -89.08,-32.63 c -29.05,-10.64 -44.11,-43.11 -33.47,-72.16 l 122.58,-334.66 c 10.64,-29.04 43.12,-44.11 72.17,-33.47"
         style="fill:#406fbf;fill-opacity:1;fill-rule:nonzero;stroke:none"
         id="path178" />
      <path
         d="m 2222.05,2096.93 c 5.7,-15.55 -2.29,-32.79 -17.85,-38.48 -15.56,-5.7 -32.79,2.28 -38.49,17.85 -5.7,15.56 2.29,32.78 17.85,38.49 15.56,5.69 32.79,-2.3 38.49,-17.86"
         style="fill:#17282f;fill-opacity:1;fill-rule:nonzero;stroke:none"
         id="path180" />
      <path
         d="m 2296.73,1893.05 c 5.7,-15.56 -2.29,-32.79 -17.85,-38.49 -15.56,-5.7 -32.79,2.3 -38.49,17.85 -5.7,15.56 2.29,32.8 17.85,38.49 15.56,5.7 32.79,-2.3 38.49,-17.85"
         style="fill:#17282f;fill-opacity:1;fill-rule:nonzero;stroke:none"
         id="path182" />
      <path
         d="m 1420.34,1917.14 -0.86,0.86 c -15.63,15.59 -32.13,32.6 -46.97,49.82 -15.14,17.17 -29.53,34.77 -42.77,52.79 -13.35,17.92 -25.25,36.49 -35.58,55.1 -7.75,14.17 -14.23,28.56 -19.22,42.74 5.97,19.91 12.34,39.71 19.93,59.2 8.73,23.04 18.58,45.78 29.25,68.14 10.69,22.36 22.09,44.43 34.36,65.96 6.06,10.8 12.35,21.45 18.8,31.91 l 9.84,15.44 c 3.12,4.99 6.8,10.45 9.4,14.29 l 1.13,1.64 c 15.01,22.11 9.97,52.32 -11.74,68.3 -22.22,16.37 -53.51,11.62 -69.88,-10.6 -5.02,-6.83 -8.79,-12.17 -12.84,-18.16 -4,-5.84 -7.63,-11.77 -11.4,-17.65 -7.33,-11.83 -14.4,-23.75 -21.18,-35.8 -13.48,-24.16 -25.78,-48.92 -36.67,-74.35 -5.66,-12.61 -10.56,-25.6 -15.72,-38.43 -4.55,-13.12 -9.51,-26.04 -13.48,-39.39 -8.82,-26.33 -15.15,-53.61 -20.97,-80.89 l -0.51,-2.38 c -1.48,-7.08 -1.07,-14.63 1.59,-21.91 9.79,-26.79 23.31,-50.58 38.25,-72.37 14.97,-21.76 31.85,-41.33 49.42,-59.66 17.79,-18.14 36.4,-35.01 55.91,-50.55 19.84,-15.44 39.32,-29.79 61.62,-43.03 9.56,-5.69 22.11,-4.43 30.32,3.8 9.71,9.72 9.69,25.47 -0.03,35.18"
         style="fill:#f46b74;fill-opacity:1;fill-rule:nonzero;stroke:none"
         id="path184" />
      <path
         d="m 1536.19,1867.46 -1.26,2.59 c -8.45,17.54 -24.63,30.12 -43.72,33.97 l -75.94,15.37 -37.05,-18.51 c 3.96,-41.52 63.38,-66.42 63.38,-66.42 l 16.88,-19.31 c 11.77,-13.46 31.82,-15.83 46.4,-5.49 l 20.08,14.24 c 13.87,9.83 18.61,28.24 11.23,43.56"
         style="fill:#f46b74;fill-opacity:1;fill-rule:nonzero;stroke:none"
         id="path186" />
      <path
         d="m 1351.92,2489.1 c -42.08,-19.31 -86.95,-86.04 -86.95,-86.04 l 90.39,-168.56 c 0,0 102.37,117.96 93.72,176.96 -7.35,50.07 -43.55,102.25 -97.16,77.64"
         style="fill:#406fbf;fill-opacity:1;fill-rule:nonzero;stroke:none"
         id="path188" />
      <path
         d="m 1355.36,2234.5 -19.18,35.76 -56.85,106.02 -14.36,26.78 c 0,0 44.87,66.73 86.95,86.04 9.45,4.34 18.35,6.29 26.65,6.29 38.82,0 64.45,-42.68 70.51,-83.93 0.35,-2.42 0.52,-4.94 0.52,-7.55 -0.09,-60.93 -94.24,-169.41 -94.24,-169.41"
         style="fill:#6d97d6;fill-opacity:1;fill-rule:nonzero;stroke:none"
         id="path190" />
      <path
         d="m 4232.92,281.301 c -88.12,-0.012 -174.73,18.14 -216.68,72.918 -198.87,259.672 -197.06,783.021 -195.32,1289.141 0.93,272.43 22.47,529.76 -7.78,729.68 -17.84,117.86 -79.61,198.82 -142.86,240.6 -93.16,61.56 -221.23,28.5 -275.93,14.37 -28.43,-7.36 -57.45,9.75 -64.81,38.21 -7.34,28.45 9.77,57.46 38.21,64.82 68.39,17.66 228.58,59.01 361.2,-28.63 89.43,-59.09 166.84,-164.55 189.38,-313.45 31.5,-208.01 9.94,-469.32 8.99,-745.97 -1.68,-488.29 -3.41,-993.201 173.39,-1224.08 14.26,-18.621 70.15,-35.289 162.49,-30.531 8.17,0.41 16.2,0.98 24.07,1.66 -3.42,7.031 -5.35,14.922 -5.35,23.262 0,29.39 23.82,53.199 53.21,53.199 116.26,0 177.46,-9.77 189.28,-63.191 3.39,-15.289 5.19,-53.688 -51.04,-79.868 -41.96,-19.543 -142.14,-42.14 -240.45,-42.14"
         style="fill:#406fbf;fill-opacity:1;fill-rule:nonzero;stroke:none"
         id="path192" />
      <path
         d="m 3068.71,235.449 -108.53,42.641 57.25,188.121 108.52,-42.629 -57.24,-188.133"
         style="fill:#f9a8b3;fill-opacity:1;fill-rule:nonzero;stroke:none"
         id="path194" />
      <path
         d="m 2957.63,289.621 122.23,-48.031 c 3.22,-1.262 5.13,-4.602 4.59,-8.008 L 3072.5,157.43 c -1.24,-7.899 -9.65,-12.532 -17.04,-9.481 -30.69,12.68 -78.71,33.641 -117.64,48.942 -23.95,9.398 -69.45,24.41 -102.51,37.41 -32.35,12.699 -24.54,47.379 -9.84,45.027 65.92,-10.578 91.17,0.641 117.46,10.481 4.75,1.769 9.99,1.671 14.7,-0.188"
         style="fill:#17282f;fill-opacity:1;fill-rule:nonzero;stroke:none"
         id="path196" />
      <path
         d="m 3096.51,326.531 -0.08,0.028 5.71,18.769 0.07,-0.027 -5.7,-18.77"
         style="fill:#c3c5c2;fill-opacity:1;fill-rule:nonzero;stroke:none"
         id="path198" />
      <path
         d="m 3096.43,326.559 -108.49,42.621 5.7,18.781 108.5,-42.633 -5.71,-18.769"
         style="fill:#d8898c;fill-opacity:1;fill-rule:nonzero;stroke:none"
         id="path200" />
      <path
         d="m 3261.71,1879.56 c 0,0 -98.16,-485.44 -135.76,-724.8 -42.13,-268.319 -153.67,-758.401 -153.67,-758.401 l 144.3,-56.699 c 0,0 206.08,501.738 234.81,744.79 86.46,197.43 258.5,778.69 258.5,778.69 l -348.18,16.42"
         style="fill:#406fbf;fill-opacity:1;fill-rule:nonzero;stroke:none"
         id="path202" />
      <path
         d="m 2965.34,395.48 158.36,-62.218 27.07,47.957 -177.08,73.402 -8.35,-59.141"
         style="fill:#17282f;fill-opacity:1;fill-rule:nonzero;stroke:none"
         id="path204" />
      <path
         d="m 2921.24,308.461 c -0.98,0.391 -1.85,0.559 -2.61,0.488 -0.6,-0.058 -1.38,-0.32 -2.04,-1.73 -1.35,-2.891 -1.39,-5.438 -0.12,-7.778 2.89,-5.312 12.97,-9.839 27.41,-12.41 -6.87,8.649 -16.6,19.059 -22.64,21.43 z m 5.3,-20.91 c -6,2.347 -11.2,5.578 -13.6,9.98 -1.89,3.489 -1.88,7.309 0.02,11.391 1.41,3.019 3.65,3.848 5.27,4.008 10.52,1.07 29.75,-24.551 31.91,-27.469 l 0.12,-2.223 -2,-0.957 c -5.99,0.84 -14.44,2.41 -21.72,5.27"
         style="fill:#406fbf;fill-opacity:1;fill-rule:nonzero;stroke:none"
         id="path206" />
      <path
         d="m 2944.45,320.59 -0.87,0.281 c -2.54,0.649 -3.18,-0.371 -3.46,-0.812 -3.03,-4.797 1.89,-21.797 7.58,-31.129 1.69,7 4.38,21.242 0.39,28.34 -0.9,1.628 -2.1,2.718 -3.64,3.32 z m 3.35,-38.192 -0.8,0.582 c -6.41,7.629 -15.4,31.09 -10.28,39.219 0.93,1.473 3.19,3.762 7.87,2.563 3.01,-0.793 5.39,-2.641 7,-5.532 6.22,-11.082 -0.84,-34.55 -1.14,-35.55 l -1.51,-1.371 -1.14,0.089"
         style="fill:#406fbf;fill-opacity:1;fill-rule:nonzero;stroke:none"
         id="path208" />
      <path
         d="m 3494.04,1488.14 c 6.59,20.53 13.08,40.91 19.42,60.94 l 0.04,-0.04 c -6.36,-20.02 -12.86,-40.38 -19.46,-60.9"
         style="fill:#c3c5c2;fill-opacity:1;fill-rule:nonzero;stroke:none"
         id="path210" />
      <path
         d="m 3397.73,1202.92 c -0.21,143.21 21.28,314.94 75.66,382.41 l 40.07,-36.25 c -6.34,-20.03 -12.83,-40.41 -19.42,-60.94 -31.84,-99 -65.9,-201.49 -96.31,-285.22"
         style="fill:#3563b7;fill-opacity:1;fill-rule:nonzero;stroke:none"
         id="path212" />
      <path
         d="m 3721.68,217.332 h -116.6 l -15.52,196.027 h 116.6 l 15.52,-196.027"
         style="fill:#f9a8b3;fill-opacity:1;fill-rule:nonzero;stroke:none"
         id="path214" />
      <path
         d="m 3598.48,227.129 h 131.33 c 3.46,0 6.46,-2.399 7.21,-5.777 l 16.72,-75.25 c 1.73,-7.801 -4.4,-15.192 -12.39,-15.043 -33.21,0.562 -85.57,2.511 -127.39,2.511 -25.73,0 -73.56,-2.672 -109.09,-2.672 -34.76,0 -40.18,35.133 -25.63,38.313 65.22,14.269 84.62,33.949 105.5,52.719 3.76,3.371 8.68,5.199 13.74,5.199"
         style="fill:#17282f;fill-opacity:1;fill-rule:nonzero;stroke:none"
         id="path216" />
      <path
         d="m 3714.25,312.262 h -0.09 l -8,101.039 h 0.03 l 8.06,-101.039 m -121.62,62.277 -3.09,38.762 h 0.03 l 3.06,-38.762"
         style="fill:#c3c5c2;fill-opacity:1;fill-rule:nonzero;stroke:none"
         id="path218" />
      <path
         d="M 3714.16,312.262 H 3597.6 l -4.97,62.277 -3.06,38.762 h 116.59 l 8,-101.039"
         style="fill:#d8898c;fill-opacity:1;fill-rule:nonzero;stroke:none"
         id="path220" />
      <path
         d="m 3402.91,1873.38 c 0,0 64.6,-540.86 78.19,-735.59 18.91,-270.938 91.98,-805.962 91.98,-805.962 h 155.04 c 0,0 16.63,546.391 -11.45,789.532 38.63,212.03 26.41,735.79 26.41,735.79 l -340.17,16.23"
         style="fill:#406fbf;fill-opacity:1;fill-rule:nonzero;stroke:none"
         id="path222" />
      <path
         d="m 3566.94,328.48 h 170.15 l 7.66,54.54 -191.66,3.539 13.85,-58.079"
         style="fill:#17282f;fill-opacity:1;fill-rule:nonzero;stroke:none"
         id="path224" />
      <path
         d="m 3557.72,231.352 c -1.05,0 -1.92,-0.161 -2.6,-0.5 -0.54,-0.282 -1.17,-0.801 -1.27,-2.352 -0.2,-3.199 0.7,-5.578 2.73,-7.289 4.63,-3.871 15.68,-4.41 30.05,-1.52 -9.55,5.528 -22.42,11.661 -28.91,11.661 z m 12.58,-17.524 c -6.44,0 -12.46,1.094 -16.3,4.32 -3.03,2.543 -4.43,6.114 -4.15,10.59 0.21,3.34 1.99,4.934 3.44,5.684 9.4,4.828 36.67,-11.981 39.75,-13.902 l 0.92,-2.02 -1.51,-1.629 c -5.88,-1.422 -14.32,-3.043 -22.15,-3.043"
         style="fill:#406fbf;fill-opacity:1;fill-rule:nonzero;stroke:none"
         id="path226" />
      <path
         d="m 3574.89,251.129 -0.91,-0.047 c -2.6,-0.332 -2.83,-1.523 -2.93,-2.043 -1.05,-5.559 9.73,-19.59 18.44,-26.199 -0.98,7.14 -3.69,21.379 -9.99,26.531 -1.45,1.18 -2.96,1.758 -4.61,1.758 z m 17.09,-34.309 -0.96,0.231 c -8.76,4.758 -25.7,23.308 -23.91,32.75 0.33,1.711 1.59,4.66 6.38,5.258 3.1,0.363 5.98,-0.489 8.55,-2.59 9.83,-8.039 11.85,-32.457 11.93,-33.489 l -0.9,-1.839 -1.09,-0.321"
         style="fill:#406fbf;fill-opacity:1;fill-rule:nonzero;stroke:none"
         id="path228" />
      <path
         d="m 3456.41,2619.34 -0.41,0.01 -93.44,1.21 c -31.33,0.21 -62.56,0.92 -93.42,1.44 -9.39,0.2 -18.62,0.63 -27.89,0.98 l 1.49,1.66 c 6.58,6.97 13.15,14.19 19.99,21.07 3.35,3.56 6.74,7.07 10.15,10.48 3.17,3.43 7.08,7.22 9.25,9.97 l 8.51,10.75 c 9.69,12.38 13.63,29.03 9.21,45.39 -7.45,27.56 -35.85,43.87 -63.42,36.42 l -18.51,-5 c -5.77,-1.74 -11.45,-3.57 -17.09,-5.46 -11.18,-3.95 -22.26,-8.2 -33.14,-12.96 -21.76,-9.5 -42.83,-20.87 -63.5,-33.8 -20.48,-13.07 -40.48,-28.14 -59.49,-45.24 -19.11,-17 -36.74,-37.13 -53.07,-59.13 -3.76,-5.13 -7.3,-11.1 -9.95,-17.18 -19.36,-44.33 0.89,-95.97 45.24,-115.33 l 9.08,-3.96 c 24.99,-10.92 44.43,-16.12 63.61,-21.1 18.97,-4.86 37.01,-8.02 54.66,-11 17.66,-2.9 35.05,-5.44 52.21,-7.57 17.18,-1.93 34.26,-3.64 51.19,-5.06 33.89,-3.07 67.49,-4.5 100.98,-5.53 33.72,-0.77 66.35,-0.97 101.1,0.59 54.65,2.58 98.81,47.35 99.53,102.77 0.74,57.57 -45.32,104.84 -102.87,105.58"
         style="fill:#f9a8b3;fill-opacity:1;fill-rule:nonzero;stroke:none"
         id="path230" />
      <path
         d="m 3510.8,2436.87 c -80.66,-92.07 -274.87,-57.64 -274.87,-57.64 l 10.64,229.24 c 0,0 98.07,23.18 202.67,23.41 113.94,0.25 126.17,-121.27 61.56,-195.01"
         style="fill:#17282f;fill-opacity:1;fill-rule:nonzero;stroke:none"
         id="path232" />
      <path
         d="m 3295.43,2507.27 c -4.85,-36.95 -9.54,-86.77 -13.09,-153.79 -42.11,-212.92 -57.85,-363.85 -20.63,-473.92 29.37,-36.31 412.53,-29.29 481.42,-22.36 39.75,99.01 44.17,383.19 48.83,622.07 1.33,68.01 -47.4,126.69 -114.43,138.25 -86.29,14.89 -173.32,18.56 -261.25,8.82 -62.87,-6.97 -112.61,-56.36 -120.85,-119.07"
         style="fill:#17282f;fill-opacity:1;fill-rule:nonzero;stroke:none"
         id="path234" />
      <path
         d="m 3788.15,2302.6 c 0.06,2.24 0.12,4.45 0.18,6.69 v 0 c -0.06,-2.23 -0.12,-4.46 -0.18,-6.69"
         style="fill:#c3c5c2;fill-opacity:1;fill-rule:nonzero;stroke:none"
         id="path236" />
      <path
         d="m 3780.57,2113.83 c -59.37,58.95 -112.15,175.24 -113.43,248.12 l 121.19,-52.66 c -0.06,-2.24 -0.12,-4.45 -0.18,-6.69 -1.78,-64.98 -4.09,-129.31 -7.58,-188.77"
         style="fill:#111d23;fill-opacity:1;fill-rule:nonzero;stroke:none"
         id="path238" />
      <path
         d="m 4000.89,2220.4 -3.37,8.07 c -14.53,34.71 -30.97,66.53 -48.94,96.62 -17.81,30 -36.94,58.3 -56.92,85.64 -19.82,27.39 -40.96,53.36 -62.57,78.8 -10.95,12.61 -21.84,25.21 -33.36,37.35 l -17.35,18.23 -18.72,18.57 c -38.93,38.42 -101.77,40.52 -142.98,3.46 -42.76,-38.47 -46.24,-104.32 -7.77,-147.09 l 2.96,-3.28 58.77,-65.33 c 19.83,-22.23 39.05,-44.87 58.02,-67.33 9.22,-11.32 18.71,-22.61 27.38,-34.07 9.25,-11.27 17.69,-22.67 26.29,-34.05 12.37,-17.29 24.34,-34.44 35.03,-51.35 -1.37,-7.75 -3.56,-16.46 -6.13,-25.33 -6.63,-22.42 -15.24,-47.02 -25.28,-71.43 -9.69,-24.69 -20.6,-49.65 -31.62,-74.86 -10.89,-25.12 -22.86,-50.93 -33.34,-75.9 l -0.94,-2.2 c -7.67,-18.31 -4.57,-40.2 9.72,-55.81 19.6,-21.42 52.85,-22.89 74.26,-3.28 22.91,20.96 42.79,42.19 62.71,64.78 19.68,22.55 38.36,46.1 56.24,71.06 8.94,12.46 17.37,25.49 25.77,38.91 8.42,13.38 16.53,27.4 23.95,42.5 7.48,15.13 14.73,30.87 21.02,49.24 6.23,18.47 11.7,38.89 12.77,67.13 0.35,10.18 -1.41,20.95 -5.6,30.95"
         style="fill:#f9a8b3;fill-opacity:1;fill-rule:nonzero;stroke:none"
         id="path240" />
      <path
         d="m 3684.31,2616.17 c 134.93,-23.01 222.78,-205.66 222.78,-205.66 L 3744.5,2236.12 c 0,0 -93.74,95.43 -149.71,183.79 -60.97,96.25 -7.12,212.75 89.52,196.26"
         style="fill:#17282f;fill-opacity:1;fill-rule:nonzero;stroke:none"
         id="path242" />
      <path
         d="m 3437.86,2904.14 c -22.52,37.83 -29.79,90.24 11.46,143.06 -27.28,-4.29 -41.25,19.65 -41.25,19.65 0,0 59.88,56.06 160.89,56.01 121.08,-0.07 130.12,-46.7 125.98,-78.62 82.76,-5.28 143.16,-220.66 -66.74,-258.7 -120.06,126.88 -190.34,118.6 -190.34,118.6"
         style="fill:#17282f;fill-opacity:1;fill-rule:nonzero;stroke:none"
         id="path244" />
      <path
         d="m 3687.25,3040.7 c 0,0 33.75,34.38 -8.19,76.04 16.02,-4.92 34.04,-17.43 39.41,-39.22 5.97,-24.23 -10.38,-43.61 -31.22,-36.82"
         style="fill:#17282f;fill-opacity:1;fill-rule:nonzero;stroke:none"
         id="path246" />
      <path
         d="m 3640.86,2812.21 c -3.2,-66.26 -9.14,-141.67 1.95,-194.64 -17.18,-27.04 -61.16,-58.24 -140.07,-65.24 -28.07,15.9 -65.04,54.75 -52.16,74.77 33.56,21.5 47.74,86.64 38.11,135.29 l 152.17,49.82"
         style="fill:#f9a8b3;fill-opacity:1;fill-rule:nonzero;stroke:none"
         id="path248" />
      <path
         d="m 3490.02,2754.19 c -0.39,2.79 -0.84,5.53 -1.37,8.22 l 113.84,37.3 c 0.01,-0.02 0.01,-0.04 0.01,-0.06 l -113.81,-37.26 c 0.53,-2.68 0.99,-5.42 1.37,-8.19 -0.01,0 -0.02,-0.01 -0.04,-0.01"
         style="fill:#c3c5c2;fill-opacity:1;fill-rule:nonzero;stroke:none"
         id="path250" />
      <path
         d="m 3491.46,2722.44 c 0.46,10.79 -0.02,21.53 -1.44,31.75 0.02,0 0.03,0.01 0.04,0.01 1.43,-10.21 1.88,-20.97 1.4,-31.76"
         style="fill:#3563b7;fill-opacity:1;fill-rule:nonzero;stroke:none"
         id="path252" />
      <path
         d="m 3489.09,2699.57 c 1.25,7.54 2.05,15.22 2.37,22.87 0.48,10.79 0.03,21.55 -1.4,31.76 -0.38,2.77 -0.84,5.51 -1.37,8.19 l 113.81,37.26 c 2.18,-12.72 0.19,-29.26 -14.59,-49.3 -17.66,-24.02 -64.82,-49.68 -98.82,-50.78"
         style="fill:#d8898c;fill-opacity:1;fill-rule:nonzero;stroke:none"
         id="path254" />
      <path
         d="m 3674.15,2917.25 c -21.11,-81.32 -29.32,-129.98 -79.13,-164.12 -74.91,-51.36 -169.16,6.14 -172.78,92.13 -3.26,77.39 31.8,197.37 118.75,214.41 85.66,16.79 154.26,-61.1 133.16,-142.42"
         style="fill:#f9a8b3;fill-opacity:1;fill-rule:nonzero;stroke:none"
         id="path256" />
      <path
         d="m 3657.28,3033.61 c -35.64,-25.43 -79.98,-133.01 10.47,-176.17 80.39,70.94 59.45,176.17 -10.47,176.17"
         style="fill:#17282f;fill-opacity:1;fill-rule:nonzero;stroke:none"
         id="path258" />
      <path
         d="m 3677.94,3020.68 c 15.22,70.86 -163.42,107.4 -220.07,24.74 -19.15,-49.51 209.23,-93.83 220.07,-24.74"
         style="fill:#17282f;fill-opacity:1;fill-rule:nonzero;stroke:none"
         id="path260" />
      <path
         d="m 3544.59,2830.92 -0.04,0.02 c -30.84,13.67 -55.86,14.53 -58.8,14.84 -1.28,0.03 -2.26,-0.93 -2.12,-2.19 0.14,-1.26 1.34,-2.34 2.64,-2.34 1.73,-0.22 26.61,-1.04 56.42,-14.25 1.2,-0.49 2.59,-0.01 3.07,1.1 0.5,1.08 -0.05,2.32 -1.17,2.82"
         style="fill:#17282f;fill-opacity:1;fill-rule:nonzero;stroke:none"
         id="path262" />
      <path
         d="m 3693.63,2828.34 c -15.36,-16.65 -36.98,-24.65 -55.59,-25.09 -28,-0.67 -35.13,26.03 -21.6,48.85 12.17,20.55 41.41,45.66 66.74,35.43 24.96,-10.07 28.02,-40.17 10.45,-59.19"
         style="fill:#f9a8b3;fill-opacity:1;fill-rule:nonzero;stroke:none"
         id="path264" />
      <path
         d="m 3544.82,2918.59 c -1.3,-6.71 -5.91,-11.45 -10.29,-10.6 -4.39,0.86 -6.88,6.98 -5.57,13.68 1.31,6.71 5.92,11.45 10.3,10.59 4.38,-0.85 6.87,-6.97 5.56,-13.67"
         style="fill:#17282f;fill-opacity:1;fill-rule:nonzero;stroke:none"
         id="path266" />
      <path
         d="m 3469.07,2933.35 c -1.3,-6.7 -5.91,-11.44 -10.29,-10.58 -4.38,0.84 -6.88,6.97 -5.57,13.68 1.31,6.69 5.92,11.43 10.3,10.58 4.38,-0.86 6.87,-6.98 5.56,-13.68"
         style="fill:#17282f;fill-opacity:1;fill-rule:nonzero;stroke:none"
         id="path268" />
      <path
         d="m 3492.51,2925.32 c 0,0 -22.78,-35.69 -43.19,-51.07 9.7,-13.38 32.08,-10.74 32.08,-10.74 l 11.11,61.81"
         style="fill:#f46878;fill-opacity:1;fill-rule:nonzero;stroke:none"
         id="path270" />
      <path
         d="m 3533.91,2957.5 c 1.42,0.36 2.98,-0.06 4.01,-1.23 11.82,-13.43 26.47,-11.47 26.62,-11.45 2.19,0.32 4.22,-1.19 4.54,-3.39 0.32,-2.18 -1.1,-4.24 -3.39,-4.54 -0.77,-0.11 -19.13,-2.57 -33.78,14.08 -1.47,1.66 -1.3,4.2 0.36,5.65 l 1.64,0.88"
         style="fill:#17282f;fill-opacity:1;fill-rule:nonzero;stroke:none"
         id="path272" />
      <path
         d="m 3445.66,2979.68 -2.06,1.37 c -1.37,1.74 -1.07,4.26 0.67,5.63 17.41,13.74 35.02,8.05 35.77,7.77 2.09,-0.72 3.22,-2.99 2.51,-5.09 -0.71,-2.09 -3.08,-3.19 -5.06,-2.52 -0.61,0.15 -14.33,4.53 -28.26,-6.45 -1.05,-0.83 -2.38,-1.05 -3.57,-0.71"
         style="fill:#17282f;fill-opacity:1;fill-rule:nonzero;stroke:none"
         id="path274" />
      <path
         d="m 3768.52,1919.98 -85.93,0.61 44.4,-98.59 c 0,0 73.27,15.73 69.28,55.47 l -27.75,42.51"
         style="fill:#f9a8b3;fill-opacity:1;fill-rule:nonzero;stroke:none"
         id="path276" />
      <path
         d="m 3638.92,1852.95 14.11,-27.78 c 7.82,-15.39 26.08,-22.28 42.11,-15.88 l 31.85,12.71 -44.4,98.59 -34.13,-25.98 c -12.83,-9.76 -16.84,-27.28 -9.54,-41.66"
         style="fill:#f9a8b3;fill-opacity:1;fill-rule:nonzero;stroke:none"
         id="path278" />
      <path
         d="m 3114.64,1992.65 c -13.37,0 -26.74,5 -37.07,15.05 -21.08,20.48 -21.56,54.16 -1.09,75.22 38.26,39.38 72.74,69.81 103.15,96.65 73.41,64.79 98.67,89.67 96.27,138.52 -1.1,22.43 -9.81,54.41 -19.01,88.27 -21.87,80.44 -46.66,171.6 -4.23,244.63 22.82,39.28 61.54,66.21 115.09,80.05 28.39,7.32 57.46,-9.76 64.82,-38.22 7.34,-28.44 -9.76,-57.46 -38.22,-64.81 -37.63,-9.72 -46.7,-25.34 -49.69,-30.47 -20.08,-34.57 -0.69,-105.93 14.9,-163.26 10.77,-39.6 20.94,-76.99 22.61,-110.96 5.04,-102.46 -55.49,-155.89 -132.13,-223.52 -28.99,-25.59 -61.84,-54.57 -97.25,-91.02 -10.43,-10.74 -24.28,-16.13 -38.15,-16.13"
         style="fill:#406fbf;fill-opacity:1;fill-rule:nonzero;stroke:none"
         id="path280" />
      <path
         d="m 3231.28,2756.64 83.27,21.25 -19.41,-106.38 c 0,0 -74.9,-2.34 -80.57,37.21 l 16.71,47.92"
         style="fill:#f9a8b3;fill-opacity:1;fill-rule:nonzero;stroke:none"
         id="path282" />
      <path
         d="m 3372.9,2721.48 -6.41,-27.73 c -4.07,-17.6 -20.89,-29.19 -38.78,-26.72 l -32.57,4.48 19.41,106.38 38.19,-16.5 c 15.48,-6.69 23.96,-23.49 20.16,-39.91"
         style="fill:#f9a8b3;fill-opacity:1;fill-rule:nonzero;stroke:none"
         id="path284" />
      <path
         d="m 2753.52,1835.92 -2.35,2.34 c -10.05,10.06 -10.05,26.53 0,36.58 l 294.98,294.99 c 10.06,10.05 26.52,10.05 36.58,0 l 2.35,-2.35 c 10.06,-10.06 10.06,-26.52 0,-36.58 L 2790.1,1835.92 c -10.06,-10.06 -26.52,-10.06 -36.58,0"
         style="fill:#17282f;fill-opacity:1;fill-rule:nonzero;stroke:none"
         id="path286" />
      <path
         d="m 2907.05,1682.38 -2.34,2.35 c -10.06,10.06 -10.06,26.52 0,36.58 l 294.97,294.98 c 10.06,10.06 26.53,10.06 36.59,0 l 2.34,-2.34 c 10.06,-10.06 10.06,-26.53 0,-36.58 l -294.98,-294.99 c -10.06,-10.05 -26.52,-10.05 -36.58,0"
         style="fill:#17282f;fill-opacity:1;fill-rule:nonzero;stroke:none"
         id="path288" />
      <path
         d="m 3334.72,1982.93 -207.84,-207.84 -283,283.01 207.83,207.83 c 27.88,27.87 73.49,27.87 101.36,0 l 181.65,-181.65 c 27.87,-27.87 27.87,-73.48 0,-101.35"
         style="fill:#406fbf;fill-opacity:1;fill-rule:nonzero;stroke:none"
         id="path290" />
      <path
         d="m 3198.81,1847.02 c -2.79,8.18 -7.45,15.7 -13.92,22.16 l -246.92,246.93 c -6.47,6.47 -13.98,11.12 -22.17,13.91 l 135.91,135.91 c 13.94,13.93 32.31,20.9 50.68,20.9 18.37,0 36.74,-6.97 50.68,-20.9 l 181.65,-181.65 c 13.94,-13.94 20.9,-32.31 20.9,-50.68 0,-18.36 -6.96,-36.73 -20.9,-50.67 l -79.97,-79.97 -55.94,-55.94"
         style="fill:#b8d2ef;fill-opacity:1;fill-rule:nonzero;stroke:none"
         id="path292" />
      <path
         d="m 3126.88,1775.06 -45.28,45.29 0.01,0.01 45.27,-45.27 71.93,71.93 c 0,-0.01 0,-0.02 0,-0.03 l -71.93,-71.93 m -84.21,84.21 -114.61,114.62 0.02,0.01 114.6,-114.61 -0.01,-0.02"
         style="fill:#c1d4f0;fill-opacity:1;fill-rule:nonzero;stroke:none"
         id="path294" />
      <path
         d="m 2878.98,2093.19 -0.03,0.02 36.82,36.82 c 0.01,0 0.02,-0.01 0.03,-0.01 l -36.82,-36.83"
         style="fill:#cfe0f5;fill-opacity:1;fill-rule:nonzero;stroke:none"
         id="path296" />
      <path
         d="m 2889.14,2012.81 -45.3,45.3 35.11,35.1 0.03,-0.02 -35.1,-35.09 45.27,-45.28 -0.01,-0.01"
         style="fill:#c1d4f0;fill-opacity:1;fill-rule:nonzero;stroke:none"
         id="path298" />
      <path
         d="m 2928.06,1973.89 -38.92,38.92 0.01,0.01 38.93,-38.92 -0.02,-0.01"
         style="fill:#1e3e61;fill-opacity:1;fill-rule:nonzero;stroke:none"
         id="path300" />
      <path
         d="m 3081.6,1820.35 -38.93,38.92 0.01,0.02 38.93,-38.93 -0.01,-0.01"
         style="fill:#1e3e61;fill-opacity:1;fill-rule:nonzero;stroke:none"
         id="path302" />
      <path
         d="m 3126.88,1775.09 -45.27,45.27 -38.93,38.93 -114.6,114.61 -38.93,38.92 -45.27,45.28 71.92,71.92 c 8.19,-2.79 15.7,-7.44 22.17,-13.91 l 246.92,-246.93 c 6.47,-6.46 11.13,-13.98 13.92,-22.16 l -71.93,-71.93"
         style="fill:#9abee8;fill-opacity:1;fill-rule:nonzero;stroke:none"
         id="path304" />
      <path
         d="m 3163.22,1762.87 -5.09,-5.09 c -21.88,-21.87 -57.68,-21.87 -79.55,0 l -252.01,252.01 c -21.88,21.88 -21.88,57.67 0,79.55 l 5.09,5.09 c 21.88,21.88 57.67,21.88 79.55,0 l 252.01,-252.01 c 21.88,-21.87 21.88,-57.67 0,-79.55"
         style="fill:#406fbf;fill-opacity:1;fill-rule:nonzero;stroke:none"
         id="path306" />
      <path
         d="M 3615.19,3320.81 H 1384.81 c -46.31,0 -84.2,37.89 -84.2,84.2 v 406.8 c 0,46.31 37.89,84.2 84.2,84.2 h 2230.38 c 46.31,0 84.2,-37.89 84.2,-84.2 v -406.8 c 0,-46.31 -37.89,-84.2 -84.2,-84.2"
         style="fill:#ffffff;fill-opacity:1;fill-rule:nonzero;stroke:none"
         id="path308" />
      <path
         d="m 1384.81,3888.63 c -42.35,0 -76.81,-34.47 -76.81,-76.82 v -406.8 c 0,-42.35 34.46,-76.81 76.81,-76.81 h 2230.38 c 42.35,0 76.81,34.46 76.81,76.81 v 406.8 c 0,42.35 -34.46,76.82 -76.81,76.82 H 1384.81 m 2230.38,-575.2 H 1384.81 c -50.49,0 -91.58,41.08 -91.58,91.58 v 406.8 c 0,50.49 41.09,91.58 91.58,91.58 h 2230.38 c 50.49,0 91.58,-41.09 91.58,-91.58 v -406.8 c 0,-50.5 -41.09,-91.58 -91.58,-91.58"
         style="fill:#17282f;fill-opacity:1;fill-rule:nonzero;stroke:none"
         id="path310" />
      <path
         d="m 1526.45,3508.42 h -28.64 v 216.42 h 81.63 c 14.38,0 25.35,-0.69 32.93,-2.07 10.63,-1.76 19.53,-5.13 26.72,-10.1 7.18,-4.97 12.96,-11.94 17.35,-20.89 4.37,-8.97 6.57,-18.8 6.57,-29.53 0,-18.41 -5.86,-33.98 -17.57,-46.72 -11.72,-12.76 -32.87,-19.12 -63.49,-19.12 h -55.5 v -87.99 m 0,190.89 v -77.36 h 55.95 c 18.5,0 31.64,3.44 39.42,10.33 7.77,6.89 11.66,16.58 11.66,29.08 0,9.06 -2.29,16.81 -6.87,23.25 -4.57,6.44 -10.6,10.7 -18.08,12.77 -4.82,1.28 -13.73,1.93 -26.72,1.93 h -55.36"
         style="fill:#9ba6a6;fill-opacity:1;fill-rule:nonzero;stroke:none"
         id="path312" />
      <path
         d="m 1740.65,3504.88 c -17.22,0 -30.45,4.21 -39.7,12.62 -9.26,8.41 -13.88,19.16 -13.88,32.26 0,7.67 1.74,14.69 5.24,21.03 3.49,6.35 8.07,11.45 13.73,15.28 5.66,3.84 12.03,6.74 19.12,8.72 5.21,1.37 13.08,2.7 23.62,3.98 21.45,2.56 37.24,5.61 47.38,9.15 0.1,3.64 0.15,5.96 0.15,6.94 0,10.82 -2.51,18.45 -7.53,22.89 -6.79,5.99 -16.88,9 -30.26,9 -12.5,0 -21.72,-2.2 -27.68,-6.57 -5.96,-4.38 -10.36,-12.13 -13.21,-23.25 l -25.99,3.54 c 2.36,11.12 6.25,20.1 11.67,26.94 5.41,6.84 13.23,12.11 23.47,15.79 10.23,3.69 22.1,5.54 35.57,5.54 13.39,0 24.27,-1.57 32.63,-4.72 8.37,-3.15 14.52,-7.11 18.46,-11.88 3.93,-4.78 6.69,-10.81 8.27,-18.09 0.88,-4.53 1.33,-12.69 1.33,-24.51 v -35.43 c 0,-24.7 0.56,-40.32 1.7,-46.87 1.12,-6.54 3.37,-12.81 6.71,-18.82 h -27.76 c -2.75,5.51 -4.52,11.95 -5.31,19.34 -9.85,-8.37 -19.32,-14.27 -28.42,-17.72 -9.1,-3.44 -18.88,-5.16 -29.31,-5.16 m 55.51,82.22 c -9.64,-3.93 -24.11,-7.28 -43.4,-10.03 -10.92,-1.58 -18.65,-3.35 -23.18,-5.32 -4.52,-1.96 -8.02,-4.84 -10.48,-8.63 -2.46,-3.79 -3.69,-8 -3.69,-12.63 0,-7.08 2.69,-12.99 8.05,-17.72 5.36,-4.71 13.21,-7.07 23.54,-7.07 10.24,0 19.35,2.23 27.32,6.71 7.96,4.48 13.82,10.6 17.57,18.38 2.85,6 4.27,14.85 4.27,26.57 v 9.74"
         style="fill:#9ba6a6;fill-opacity:1;fill-rule:nonzero;stroke:none"
         id="path314" />
      <path
         d="m 1921.36,3444.79 c -18.7,0 -33.81,4.21 -45.32,12.62 -11.52,8.42 -17.08,21.09 -16.68,38.02 l 25.83,-3.84 c 1.08,-7.98 4.09,-13.78 9.01,-17.42 6.59,-4.92 15.6,-7.38 27.01,-7.38 12.31,0 21.8,2.46 28.5,7.38 6.69,4.92 11.22,11.81 13.58,20.67 1.38,5.42 2.01,16.77 1.92,34.1 -11.62,-13.69 -26.09,-20.52 -43.4,-20.52 -21.57,0 -38.25,7.77 -50.05,23.33 -11.82,15.55 -17.72,34.2 -17.72,55.95 0,14.96 2.71,28.76 8.12,41.4 5.41,12.65 13.26,22.42 23.54,29.31 10.29,6.89 22.38,10.33 36.25,10.33 18.5,0 33.75,-7.48 45.76,-22.43 v 18.9 h 24.51 v -135.53 c 0,-24.41 -2.48,-41.71 -7.45,-51.89 -4.97,-10.19 -12.85,-18.24 -23.63,-24.15 -10.77,-5.89 -24.03,-8.85 -39.78,-8.85 m 2.51,201.96 c -11.81,0 -21.85,-4.8 -30.12,-14.39 -8.26,-9.6 -12.4,-23.84 -12.4,-42.75 0,-20.57 4.09,-35.57 12.25,-45.02 8.18,-9.45 18.41,-14.18 30.72,-14.18 12.19,0 22.43,4.71 30.7,14.1 8.27,9.4 12.4,24.14 12.4,44.22 0,19.19 -4.26,33.66 -12.77,43.4 -8.52,9.75 -18.77,14.62 -30.78,14.62"
         style="fill:#9ba6a6;fill-opacity:1;fill-rule:nonzero;stroke:none"
         id="path316" />
      <path
         d="m 2098.21,3504.88 c -22.93,0 -41.11,7.05 -54.55,21.19 -13.43,14.12 -20.14,33.92 -20.14,59.41 0,26.38 6.78,46.84 20.37,61.41 13.58,14.57 31.2,21.85 52.85,21.85 20.96,0 38.08,-7.13 51.37,-21.4 13.29,-14.27 19.94,-34.35 19.94,-60.24 0,-1.57 -0.06,-3.93 -0.16,-7.08 h -116.91 c 0.97,-17.23 5.85,-30.41 14.61,-39.57 8.76,-9.15 19.68,-13.72 32.77,-13.72 9.75,0 18.07,2.55 24.95,7.68 6.89,5.11 12.35,13.28 16.39,24.5 l 27.46,-3.4 c -4.34,-16.04 -12.36,-28.49 -24.06,-37.35 -11.72,-8.85 -26.67,-13.28 -44.89,-13.28 m -1.18,142.01 c -12.21,0 -22.46,-4.08 -30.78,-12.25 -8.32,-8.16 -12.92,-19.09 -13.8,-32.77 h 87.54 c -1.18,13.19 -4.52,23.07 -10.04,29.67 -8.47,10.24 -19.43,15.35 -32.92,15.35"
         style="fill:#9ba6a6;fill-opacity:1;fill-rule:nonzero;stroke:none"
         id="path318" />
      <path
         d="m 2411.93,3508.42 h -26.57 v 95.37 c 0,10.82 -1.03,18.92 -3.1,24.29 -2.06,5.36 -5.74,9.63 -11,12.84 -5.26,3.19 -11.44,4.79 -18.53,4.79 -11.31,0 -21.08,-3.59 -29.3,-10.78 -8.21,-7.18 -12.33,-20.81 -12.33,-40.89 v -85.62 h -26.57 v 156.79 h 23.92 v -22.3 c 11.51,17.22 28.14,25.83 49.89,25.83 9.45,0 18.13,-1.7 26.06,-5.09 7.92,-3.4 13.85,-7.85 17.79,-13.36 3.93,-5.51 6.7,-12.06 8.27,-19.63 0.98,-4.93 1.47,-13.54 1.47,-25.84 v -96.4"
         style="fill:#9ba6a6;fill-opacity:1;fill-rule:nonzero;stroke:none"
         id="path320" />
      <path
         d="m 2516.3,3504.88 c -21.94,0 -39.69,7.03 -53.21,21.11 -13.54,14.07 -20.31,34.34 -20.31,60.82 0,29.03 8.07,50.53 24.21,64.52 13.49,11.61 29.92,17.41 49.31,17.41 21.55,0 39.17,-7.06 52.85,-21.18 13.68,-14.12 20.53,-33.63 20.53,-58.54 0,-20.17 -3.03,-36.04 -9.08,-47.6 -6.06,-11.58 -14.87,-20.55 -26.43,-26.95 -11.56,-6.39 -24.19,-9.59 -37.87,-9.59 m 0,141.87 c -13.28,0 -24.31,-4.97 -33.07,-14.91 -8.76,-9.95 -13.13,-24.95 -13.13,-45.03 0,-20.08 4.37,-35.11 13.13,-45.1 8.76,-9.99 19.79,-14.98 33.07,-14.98 13.19,0 24.16,5.02 32.93,15.06 8.75,10.03 13.13,25.33 13.13,45.91 0,19.38 -4.4,34.07 -13.21,44.06 -8.81,9.99 -19.76,14.99 -32.85,14.99"
         style="fill:#9ba6a6;fill-opacity:1;fill-rule:nonzero;stroke:none"
         id="path322" />
      <path
         d="m 2662.61,3506.35 c -9.65,0 -17.13,1.53 -22.44,4.58 -5.32,3.05 -9.06,7.06 -11.22,12.03 -2.17,4.97 -3.25,15.43 -3.25,31.37 v 90.2 h -19.49 v 20.68 h 19.49 v 38.81 l 26.43,15.95 v -54.76 h 26.72 v -20.68 h -26.72 v -91.68 c 0,-7.58 0.46,-12.45 1.4,-14.61 0.93,-2.17 2.46,-3.89 4.58,-5.16 2.11,-1.29 5.13,-1.93 9.08,-1.93 2.95,0 6.83,0.35 11.66,1.04 l 3.84,-23.48 c -7.49,-1.57 -14.17,-2.36 -20.08,-2.36"
         style="fill:#9ba6a6;fill-opacity:1;fill-rule:nonzero;stroke:none"
         id="path324" />
      <path
         d="m 2821.6,3508.42 h -26.42 v 136.11 h -23.48 v 20.68 h 23.48 v 16.68 c 0,10.52 0.93,18.34 2.8,23.46 2.56,6.9 7.06,12.48 13.5,16.76 6.45,4.29 15.48,6.43 27.09,6.43 7.48,0 15.76,-0.89 24.81,-2.66 l -3.99,-23.18 c -5.51,0.98 -10.73,1.47 -15.65,1.47 -8.07,0 -13.78,-1.72 -17.12,-5.17 -3.35,-3.44 -5.02,-9.88 -5.02,-19.33 v -14.46 h 30.56 v -20.68 h -30.56 v -136.11"
         style="fill:#9ba6a6;fill-opacity:1;fill-rule:nonzero;stroke:none"
         id="path326" />
      <path
         d="m 2936.46,3504.88 c -21.95,0 -39.69,7.03 -53.22,21.11 -13.53,14.07 -20.3,34.34 -20.3,60.82 0,29.03 8.07,50.53 24.21,64.52 13.48,11.61 29.92,17.41 49.31,17.41 21.55,0 39.16,-7.06 52.85,-21.18 13.68,-14.12 20.52,-33.63 20.52,-58.54 0,-20.17 -3.02,-36.04 -9.08,-47.6 -6.05,-11.58 -14.86,-20.55 -26.42,-26.95 -11.57,-6.39 -24.19,-9.59 -37.87,-9.59 m 0,141.87 c -13.29,0 -24.31,-4.97 -33.07,-14.91 -8.76,-9.95 -13.14,-24.95 -13.14,-45.03 0,-20.08 4.38,-35.11 13.14,-45.1 8.76,-9.99 19.78,-14.98 33.07,-14.98 13.19,0 24.16,5.02 32.92,15.06 8.75,10.03 13.14,25.33 13.14,45.91 0,19.38 -4.4,34.07 -13.21,44.06 -8.81,9.99 -19.76,14.99 -32.85,14.99"
         style="fill:#9ba6a6;fill-opacity:1;fill-rule:nonzero;stroke:none"
         id="path328" />
      <path
         d="m 3093.97,3504.88 c -9.25,0 -17.89,1.77 -25.9,5.31 -8.03,3.54 -13.98,7.99 -17.87,13.36 -3.89,5.37 -6.62,11.93 -8.19,19.71 -1.08,5.22 -1.63,13.48 -1.63,24.8 v 97.15 h 26.57 v -86.97 c 0,-13.87 0.55,-23.22 1.63,-28.04 1.67,-7 5.22,-12.47 10.63,-16.46 5.41,-3.99 12.11,-5.98 20.08,-5.98 7.97,0 15.45,2.04 22.44,6.13 6.98,4.08 11.93,9.64 14.83,16.68 2.9,7.03 4.36,17.24 4.36,30.63 v 84.01 h 26.57 v -156.79 h -23.77 v 23.03 c -12.2,-17.72 -28.78,-26.57 -49.75,-26.57"
         style="fill:#9ba6a6;fill-opacity:1;fill-rule:nonzero;stroke:none"
         id="path330" />
      <path
         d="m 3336.53,3508.42 h -26.57 v 95.37 c 0,10.82 -1.03,18.92 -3.1,24.29 -2.07,5.36 -5.74,9.63 -11,12.84 -5.26,3.19 -11.44,4.79 -18.53,4.79 -11.31,0 -21.08,-3.59 -29.3,-10.78 -8.22,-7.18 -12.33,-20.81 -12.33,-40.89 v -85.62 h -26.57 v 156.79 h 23.92 v -22.3 c 11.51,17.22 28.14,25.83 49.89,25.83 9.45,0 18.13,-1.7 26.06,-5.09 7.92,-3.4 13.85,-7.85 17.79,-13.36 3.93,-5.51 6.7,-12.06 8.27,-19.63 0.97,-4.93 1.47,-13.54 1.47,-25.84 v -96.4"
         style="fill:#9ba6a6;fill-opacity:1;fill-rule:nonzero;stroke:none"
         id="path332" />
      <path
         d="m 3435.15,3504.88 c -12.5,0 -24,3.44 -34.48,10.33 -10.47,6.89 -18.6,16.51 -24.35,28.86 -5.76,12.35 -8.65,26.55 -8.65,42.59 0,15.66 2.61,29.84 7.83,42.59 5.21,12.75 13.04,22.52 23.47,29.3 10.43,6.8 22.1,10.19 34.99,10.19 9.45,0 17.87,-1.99 25.25,-5.97 7.38,-3.99 13.38,-9.18 18.01,-15.58 v 77.65 h 26.42 v -216.42 h -24.65 v 19.78 c -9.94,-15.55 -24.56,-23.32 -43.84,-23.32 m 1.32,141.87 c -11.81,0 -21.67,-4.82 -29.6,-14.47 -7.92,-9.64 -11.88,-24.85 -11.88,-45.62 0,-20.08 4.23,-35.09 12.7,-45.03 8.46,-9.94 18.45,-14.9 29.97,-14.9 11.61,0 21.47,4.75 29.6,14.24 8.11,9.5 12.17,23.99 12.17,43.48 0,21.45 -4.13,37.2 -12.4,47.24 -8.26,10.04 -18.46,15.06 -30.56,15.06"
         style="fill:#9ba6a6;fill-opacity:1;fill-rule:nonzero;stroke:none"
         id="path334" />
      <path
         d="m 2685.44,3210.7 c 0,-102.41 -83.03,-185.43 -185.44,-185.43 -102.41,0 -185.44,83.02 -185.44,185.43 0,102.42 83.03,185.44 185.44,185.44 102.41,0 185.44,-83.02 185.44,-185.44"
         style="fill:#17282f;fill-opacity:1;fill-rule:nonzero;stroke:none"
         id="path336" />
      <path
         d="m 2657.77,3210.7 c 0,-87.13 -70.63,-157.77 -157.77,-157.77 -87.14,0 -157.77,70.64 -157.77,157.77 0,87.14 70.63,157.78 157.77,157.78 87.14,0 157.77,-70.64 157.77,-157.78"
         style="fill:#ffffff;fill-opacity:1;fill-rule:nonzero;stroke:none"
         id="path338" />
      <path
         d="m 2606.67,3244.72 h -73.93 l 62.09,183.69 -201.5,-251.73 h 73.94 l -62.1,-183.67 201.5,251.71"
         style="fill:#406fbf;fill-opacity:1;fill-rule:nonzero;stroke:none"
         id="path340" />
      <path
         d="m 2613.04,3075.62 22.05,22.04 -248.13,248.14 -22.05,-22.05 248.13,-248.13"
         style="fill:#17282f;fill-opacity:1;fill-rule:nonzero;stroke:none"
         id="path342" />
    </g>
  </g>
</svg>
