<svg class="svg-icon" style="width: 1em;height: 1em;vertical-align: middle;fill: currentColor;overflow: hidden;" viewBox="0 0 1024 1024" version="1.1" xmlns="http://www.w3.org/2000/svg"><path d="M550.997333 607.232h-77.226666l-16.512 155.306667s24.149333 10.538667 54.741333 10.112c27.392-0.341333 61.482667-11.648 61.482667-11.648l-22.485334-153.770667z" fill="#59C2FF" /><path d="M605.098667 724.650667l-39.253334-139.904c0-8.277333-7.466667-14.976-16.597333-14.976H477.866667c-8.96 0-16.213333 6.698667-16.213334 14.976l-38.101333 141.781333a14.165333 14.165333 0 0 0-2.090667 7.722667l-0.170666 0.682666c0 1.962667 0.64 3.882667 1.834666 5.632a14.976 14.976 0 0 0 3.029334 3.968l78.805333 65.237334c4.394667 3.968 11.52 3.968 15.872 0l83.584-64.896a16.170667 16.170667 0 0 0 3.626667-9.941334l-0.042667-0.085333a16.981333 16.981333 0 0 0-2.858667-10.197333z m-41.813334-0.213334v0.341334l-0.085333 0.597333a9.941333 9.941333 0 0 1-1.792 4.608l-0.469333 0.426667a11.818667 11.818667 0 0 1-3.2 2.688l-39.978667 33.28a6.698667 6.698667 0 0 1-8.96 0l-38.101333-33.536c-3.328-1.877333-5.546667-4.821333-5.76-8.192v-0.213334l-0.042667-0.341333a8.746667 8.746667 0 0 1 0.597333-3.626667l18.005334-103.850666c0-5.12 11.562667-9.386667 16.554666-9.386667l35.413334 0.042667c5.461333 0 9.941333 4.181333 9.941333 9.344l17.28 103.466666c0.426667 1.237333 0.64 2.56 0.64 3.84v0.512zM896 856.32a384.170667 384.170667 0 0 0-278.4-369.322667 194.986667 194.986667 0 1 0-211.2 0 384.170667 384.170667 0 0 0-278.144 383.146667 22.485333 22.485333 0 0 0 22.229333 25.898667h723.029334a22.485333 22.485333 0 0 0 22.229333-25.898667c0.170667-4.608 0.256-9.216 0.256-13.866667zM361.984 322.602667a149.632 149.632 0 1 1 299.264 0 149.632 149.632 0 0 1-299.264 0zM173.056 850.986667a338.986667 338.986667 0 0 1 677.888 0H173.056z" fill="#000000" /></svg>